<?xml version="1.0" encoding="UTF-8"?>
<svg xmlns="http://www.w3.org/2000/svg" xmlns:xlink="http://www.w3.org/1999/xlink" viewBox="0 0 595.28 162.9">
  <defs>
    <style>
      .cls-1 {
        fill: url(#Degradado_sin_nombre_36);
      }

      .cls-2 {
        fill: url(#Degradado_sin_nombre_5);
      }

      .cls-3 {
        fill: url(#Degradado_sin_nombre_36-4);
      }

      .cls-4 {
        fill: url(#Degradado_sin_nombre_43-3);
      }

      .cls-5 {
        fill: url(#Degradado_sin_nombre_28);
      }

      .cls-6 {
        fill: url(#Degradado_sin_nombre_30-3);
      }

      .cls-7 {
        fill: url(#Degradado_sin_nombre_22-4);
      }

      .cls-8 {
        mix-blend-mode: color-dodge;
      }

      .cls-9 {
        fill: url(#Degradado_sin_nombre_22-8);
      }

      .cls-10 {
        fill: url(#Degradado_sin_nombre_36-2);
      }

      .cls-11 {
        fill: url(#Degradado_sin_nombre_22-9);
      }

      .cls-12 {
        fill: #fff;
      }

      .cls-13 {
        fill: url(#Degradado_sin_nombre_43-2);
      }

      .cls-14 {
        fill: url(#Degradado_sin_nombre_43);
      }

      .cls-15 {
        fill: url(#Degradado_sin_nombre_22-7);
      }

      .cls-16 {
        fill: #3aaa35;
      }

      .cls-17 {
        fill: url(#Degradado_sin_nombre_4);
      }

      .cls-18 {
        fill: url(#Degradado_sin_nombre_30-2);
      }

      .cls-19 {
        fill: url(#Degradado_sin_nombre_2);
      }

      .cls-20 {
        isolation: isolate;
      }

      .cls-21 {
        fill: url(#Degradado_sin_nombre_22-5);
      }

      .cls-22 {
        fill: url(#Degradado_sin_nombre_43-8);
      }

      .cls-23 {
        fill: #dce169;
      }

      .cls-24 {
        fill: url(#Degradado_sin_nombre_22-3);
      }

      .cls-25 {
        fill: url(#Degradado_sin_nombre_43-6);
      }

      .cls-26 {
        fill: #063;
      }

      .cls-27 {
        fill: url(#Degradado_sin_nombre_22-2);
      }

      .cls-28 {
        fill: url(#Degradado_sin_nombre_43-5);
      }

      .cls-29 {
        fill: #fdc75f;
      }

      .cls-30 {
        fill: url(#Degradado_sin_nombre_21);
      }

      .cls-31 {
        fill: url(#Degradado_sin_nombre_43-4);
      }

      .cls-32 {
        fill: url(#Degradado_sin_nombre_3);
      }

      .cls-33 {
        fill: #c8d400;
      }

      .cls-34 {
        fill: url(#Degradado_sin_nombre_22);
      }

      .cls-35 {
        fill: url(#Degradado_sin_nombre_36-3);
      }

      .cls-36 {
        fill: url(#Degradado_sin_nombre_22-6);
      }

      .cls-37 {
        fill: url(#Degradado_sin_nombre_43-7);
      }

      .cls-38 {
        fill: url(#Degradado_sin_nombre_30);
      }
    </style>
    <linearGradient id="Degradado_sin_nombre_43" data-name="Degradado sin nombre 43" x1="190.59" y1="107.44" x2="190.59" y2="76.87" gradientUnits="userSpaceOnUse">
      <stop offset="0" stop-color="#ec6608"/>
      <stop offset="1" stop-color="#ef7d00"/>
    </linearGradient>
    <linearGradient id="Degradado_sin_nombre_43-2" data-name="Degradado sin nombre 43" x1="210.24" x2="210.24" xlink:href="#Degradado_sin_nombre_43"/>
    <linearGradient id="Degradado_sin_nombre_43-3" data-name="Degradado sin nombre 43" x1="230.59" x2="230.59" xlink:href="#Degradado_sin_nombre_43"/>
    <linearGradient id="Degradado_sin_nombre_43-4" data-name="Degradado sin nombre 43" x1="250.94" x2="250.94" xlink:href="#Degradado_sin_nombre_43"/>
    <linearGradient id="Degradado_sin_nombre_36" data-name="Degradado sin nombre 36" x1="274.25" y1="92.5" x2="311.26" y2="92.5" gradientUnits="userSpaceOnUse">
      <stop offset="0" stop-color="#f39200"/>
      <stop offset=".38" stop-color="#f28e00"/>
      <stop offset=".69" stop-color="#f08401"/>
      <stop offset=".97" stop-color="#ee7402"/>
      <stop offset="1" stop-color="#ee7203"/>
    </linearGradient>
    <linearGradient id="Degradado_sin_nombre_36-2" data-name="Degradado sin nombre 36" x1="292.76" y1="92.5" x2="292.76" y2="66.32" xlink:href="#Degradado_sin_nombre_36"/>
    <linearGradient id="Degradado_sin_nombre_22" data-name="Degradado sin nombre 22" x1="292.76" y1="91.18" x2="292.76" y2="67.22" gradientUnits="userSpaceOnUse">
      <stop offset="0" stop-color="#8a4913"/>
      <stop offset=".54" stop-color="#874712"/>
      <stop offset=".76" stop-color="#804111"/>
      <stop offset=".93" stop-color="#74360f"/>
      <stop offset="1" stop-color="#6d300e"/>
    </linearGradient>
    <linearGradient id="Degradado_sin_nombre_22-2" data-name="Degradado sin nombre 22" x1="291.28" y1="85.12" x2="291.28" y2="68.92" xlink:href="#Degradado_sin_nombre_22"/>
    <linearGradient id="Degradado_sin_nombre_22-3" data-name="Degradado sin nombre 22" x1="294.23" y1="85.12" x2="294.23" y2="68.92" xlink:href="#Degradado_sin_nombre_22"/>
    <linearGradient id="Degradado_sin_nombre_36-3" data-name="Degradado sin nombre 36" x1="292.76" y1="92.5" x2="318.94" y2="92.5" xlink:href="#Degradado_sin_nombre_36"/>
    <linearGradient id="Degradado_sin_nombre_22-4" data-name="Degradado sin nombre 22" x1="294.08" y1="92.5" x2="318.04" y2="92.5" xlink:href="#Degradado_sin_nombre_22"/>
    <linearGradient id="Degradado_sin_nombre_22-5" data-name="Degradado sin nombre 22" x1="300.14" y1="91.03" x2="316.34" y2="91.03" xlink:href="#Degradado_sin_nombre_22"/>
    <linearGradient id="Degradado_sin_nombre_22-6" data-name="Degradado sin nombre 22" x1="300.14" y1="93.98" x2="316.34" y2="93.98" xlink:href="#Degradado_sin_nombre_22"/>
    <linearGradient id="Degradado_sin_nombre_36-4" data-name="Degradado sin nombre 36" x1="292.76" y1="92.5" x2="292.76" y2="118.68" xlink:href="#Degradado_sin_nombre_36"/>
    <linearGradient id="Degradado_sin_nombre_22-7" data-name="Degradado sin nombre 22" x1="292.76" y1="93.83" x2="292.76" y2="117.79" xlink:href="#Degradado_sin_nombre_22"/>
    <linearGradient id="Degradado_sin_nombre_22-8" data-name="Degradado sin nombre 22" x1="294.23" y1="99.89" x2="294.23" y2="116.09" xlink:href="#Degradado_sin_nombre_22"/>
    <linearGradient id="Degradado_sin_nombre_22-9" data-name="Degradado sin nombre 22" x1="291.28" y1="99.89" x2="291.28" y2="116.09" xlink:href="#Degradado_sin_nombre_22"/>
    <linearGradient id="Degradado_sin_nombre_21" data-name="Degradado sin nombre 21" x1="266.58" y1="92.5" x2="292.76" y2="92.5" gradientUnits="userSpaceOnUse">
      <stop offset="0" stop-color="#ee7203"/>
      <stop offset=".03" stop-color="#ee7402"/>
      <stop offset=".31" stop-color="#f08401"/>
      <stop offset=".62" stop-color="#f28e00"/>
      <stop offset="1" stop-color="#f39200"/>
    </linearGradient>
    <linearGradient id="Degradado_sin_nombre_30" data-name="Degradado sin nombre 30" x1="267.47" y1="92.5" x2="291.43" y2="92.5" gradientUnits="userSpaceOnUse">
      <stop offset="0" stop-color="#6d300e"/>
      <stop offset=".07" stop-color="#74360f"/>
      <stop offset=".24" stop-color="#804111"/>
      <stop offset=".46" stop-color="#874712"/>
      <stop offset="1" stop-color="#8a4913"/>
    </linearGradient>
    <linearGradient id="Degradado_sin_nombre_30-2" data-name="Degradado sin nombre 30" x1="269.17" y1="93.98" x2="285.37" y2="93.98" xlink:href="#Degradado_sin_nombre_30"/>
    <linearGradient id="Degradado_sin_nombre_30-3" data-name="Degradado sin nombre 30" x1="269.17" y1="91.03" x2="285.37" y2="91.03" xlink:href="#Degradado_sin_nombre_30"/>
    <radialGradient id="Degradado_sin_nombre_28" data-name="Degradado sin nombre 28" cx="292.76" cy="92.5" fx="292.76" fy="92.5" r="6.01" gradientUnits="userSpaceOnUse">
      <stop offset="0" stop-color="#f39200"/>
      <stop offset=".34" stop-color="#f28e00"/>
      <stop offset=".61" stop-color="#f08402"/>
      <stop offset=".85" stop-color="#ee7305"/>
      <stop offset="1" stop-color="#ec6608"/>
    </radialGradient>
    <linearGradient id="Degradado_sin_nombre_4" data-name="Degradado sin nombre 4" x1="298.69" y1="107.78" x2="307.43" y2="99.05" gradientUnits="userSpaceOnUse">
      <stop offset="0" stop-color="#6d300e"/>
      <stop offset=".07" stop-color="#74360f"/>
      <stop offset=".24" stop-color="#804111"/>
      <stop offset=".46" stop-color="#874712"/>
      <stop offset="1" stop-color="#8a4913"/>
    </linearGradient>
    <linearGradient id="Degradado_sin_nombre_2" data-name="Degradado sin nombre 2" x1="307.67" y1="86.54" x2="299.77" y2="77.94" gradientUnits="userSpaceOnUse">
      <stop offset="0" stop-color="#6d300e"/>
      <stop offset=".07" stop-color="#74360f"/>
      <stop offset=".24" stop-color="#804111"/>
      <stop offset=".46" stop-color="#874712"/>
      <stop offset="1" stop-color="#8a4913"/>
    </linearGradient>
    <linearGradient id="Degradado_sin_nombre_5" data-name="Degradado sin nombre 5" x1="286.44" y1="107.34" x2="278.11" y2="99.17" gradientUnits="userSpaceOnUse">
      <stop offset="0" stop-color="#6d300e"/>
      <stop offset=".07" stop-color="#74360f"/>
      <stop offset=".24" stop-color="#804111"/>
      <stop offset=".46" stop-color="#874712"/>
      <stop offset="1" stop-color="#8a4913"/>
    </linearGradient>
    <linearGradient id="Degradado_sin_nombre_3" data-name="Degradado sin nombre 3" x1="277.94" y1="86.51" x2="285.9" y2="77.71" gradientUnits="userSpaceOnUse">
      <stop offset="0" stop-color="#6d300e"/>
      <stop offset=".07" stop-color="#74360f"/>
      <stop offset=".24" stop-color="#804111"/>
      <stop offset=".46" stop-color="#874712"/>
      <stop offset="1" stop-color="#8a4913"/>
    </linearGradient>
    <linearGradient id="Degradado_sin_nombre_43-5" data-name="Degradado sin nombre 43" x1="333.63" x2="333.63" xlink:href="#Degradado_sin_nombre_43"/>
    <linearGradient id="Degradado_sin_nombre_43-6" data-name="Degradado sin nombre 43" x1="352.3" x2="352.3" xlink:href="#Degradado_sin_nombre_43"/>
    <linearGradient id="Degradado_sin_nombre_43-7" data-name="Degradado sin nombre 43" x1="376.25" x2="376.25" xlink:href="#Degradado_sin_nombre_43"/>
    <linearGradient id="Degradado_sin_nombre_43-8" data-name="Degradado sin nombre 43" x1="401.41" x2="401.41" xlink:href="#Degradado_sin_nombre_43"/>
  </defs>
  <g class="cls-20">
    <g id="Capa_1" data-name="Capa 1">
      <g>
        
        <g>
          <path class="cls-26" d="M234.85,132.06v.55l-.62.14.25-1.47h.61l-.04,1.44c-.63.34-1.31.48-2.01.48-2.01,0-3.37-1.46-3.37-3.49s1.42-3.49,3.36-3.49c.54,0,1.25.09,1.92.48l.04,1.44h-.61l-.25-1.47.62.14v.61c-.57-.53-1.13-.7-1.6-.7-1.35,0-2.43,1.05-2.43,2.99s.98,2.99,2.36,2.99c.57,0,1.21-.17,1.77-.64Z"/>
          <path class="cls-26" d="M238.05,126.77v-.4h1.4v.55h-.1l-1.3-.15ZM239.44,132.5v.55h-1.4v-.4l1.3-.15h.1ZM238.99,129.46c0-1.03,0-2.06-.03-3.09h.96c-.03,1.01-.03,2.04-.03,3.09v.38c0,1.15,0,2.18.03,3.21h-.96c.03-1.01.03-2.04.03-3.09v-.5ZM242.2,126.37l.45.5h-3.21v-.5h3.56l.07,1.77h-.56l-.31-1.77ZM241.69,129.86h-2.25v-.46h2.25v.46ZM243.27,131.27l-.07,1.77h-3.76v-.5h3.41l-.45.5.31-1.77h.56ZM241.38,129.51l.15-1.06h.45v2.36h-.45l-.15-1.11v-.2Z"/>
          <path class="cls-26" d="M246.2,126.77v-.4h1.4v.55h-.1l-1.3-.15ZM247.69,132.5l1.29.15v.4h-2.79v-.4l1.3-.15h.2ZM247.15,129.46c0-1.03,0-2.06-.03-3.09h.96c-.03,1.04-.03,2.01-.03,3.19v.3c0,1.13,0,2.16.03,3.19h-.96c.03-1.01.03-2.04.03-3.09v-.5ZM247.6,129.51h1.25c1.08,0,1.59-.58,1.59-1.38s-.45-1.3-1.48-1.3h-1.35v-.46h1.36c1.52,0,2.42.65,2.42,1.75,0,.85-.67,1.61-1.97,1.72l.03-.08c.72.07,1.16.4,1.42,1.3l.49,1.65-.31-.19,1.03.12v.4c-.18.06-.42.1-.72.1-.62,0-.89-.16-1.01-.62l-.41-1.62c-.2-.81-.57-.95-1.39-.95h-.95v-.45Z"/>
          <path class="cls-26" d="M255.47,126.92l-1.29-.15v-.4h2.69v.45l-1.2.1h-.2ZM254.77,126.37h.96l1.99,5.66h-.21l1.91-5.66h.54l-2.28,6.75h-.4l-2.51-6.75ZM259.35,126.92l-1-.1v-.45h2.3v.4l-1.11.15h-.2Z"/>
          <path class="cls-26" d="M263.48,126.77v-.4h1.4v.55h-.1l-1.3-.15ZM264.88,132.5v.55h-1.4v-.4l1.3-.15h.1ZM264.43,129.46c0-1.03,0-2.06-.03-3.09h.96c-.03,1.01-.03,2.04-.03,3.09v.38c0,1.15,0,2.18.03,3.21h-.96c.03-1.01.03-2.04.03-3.09v-.5ZM267.64,126.37l.45.5h-3.21v-.5h3.56l.07,1.77h-.56l-.31-1.77ZM267.13,129.86h-2.25v-.46h2.25v.46ZM268.7,131.27l-.07,1.77h-3.76v-.5h3.41l-.45.5.31-1.77h.56ZM266.81,129.51l.15-1.06h.45v2.36h-.45l-.15-1.11v-.2Z"/>
          <path class="cls-26" d="M276.36,126.37v.35l-4.12,6.33h-.74v-.35l4.13-6.33h.73ZM271.6,128.14l.08-1.77h4.34v.5h-4l.55-.5-.38,1.77h-.6ZM276.58,131.27l-.08,1.77h-4.65v-.5h4.3l-.55.5.38-1.77h.6Z"/>
          <path class="cls-26" d="M279.22,132.65l1-.15h.2l1.1.15v.4h-2.29v-.4ZM282.19,126.32h.6l2.29,6.73h-.93l-2-5.97h.23l-2.03,5.97h-.47l2.31-6.73ZM281.03,130.4h2.69l.16.46h-3.01l.16-.46ZM282.99,132.65l1.25-.15h.2l1.24.15v.4h-2.69v-.4Z"/>
          <path class="cls-26" d="M292.14,132.65l1-.15h.2l1.1.15v.4h-2.29v-.4ZM295.11,126.32h.6l2.29,6.73h-.93l-2-5.97h.23l-2.03,5.97h-.47l2.31-6.73ZM293.95,130.4h2.69l.16.46h-3.01l.16-.46ZM295.91,132.65l1.25-.15h.2l1.24.15v.4h-2.69v-.4Z"/>
          <path class="cls-26" d="M301.43,126.77v-.4h1.4v.55h-.1l-1.3-.15ZM302.92,132.5l1.29.15v.4h-2.79v-.4l1.3-.15h.2ZM302.37,129.46c0-1.03,0-2.06-.03-3.09h.96c-.03,1.04-.03,2.01-.03,3.19v.3c0,1.13,0,2.16.03,3.19h-.96c.03-1.01.03-2.04.03-3.09v-.5ZM302.82,129.51h1.25c1.08,0,1.59-.58,1.59-1.38s-.45-1.3-1.48-1.3h-1.35v-.46h1.36c1.52,0,2.42.65,2.42,1.75,0,.85-.67,1.61-1.97,1.72l.03-.08c.72.07,1.16.4,1.42,1.3l.49,1.65-.31-.19,1.03.12v.4c-.18.06-.42.1-.72.1-.62,0-.89-.16-1.01-.62l-.41-1.62c-.2-.81-.57-.95-1.39-.95h-.95v-.45Z"/>
          <path class="cls-26" d="M310.11,126.87l.45-.5-.32,1.77h-.56l.08-1.77h5.44l.08,1.77h-.56l-.32-1.77.45.5h-4.74ZM312.59,132.5l1.4.15v.4h-2.99v-.4l1.39-.15h.2ZM312.04,129.46c0-1.03,0-2.06-.03-3.09h.96c-.03,1.01-.03,2.04-.03,3.09v.5c0,1.03,0,2.06.03,3.09h-.96c.03-1.01.03-2.04.03-3.09v-.5Z"/>
          <path class="cls-26" d="M318.13,126.77v-.4h1.4v.55h-.1l-1.3-.15ZM319.53,132.5v.55h-1.4v-.4l1.3-.15h.1ZM319.08,129.46c0-1.03,0-2.06-.03-3.09h.96c-.03,1.01-.03,2.04-.03,3.09v.38c0,1.15,0,2.18.03,3.21h-.96c.03-1.01.03-2.04.03-3.09v-.5ZM322.29,126.37l.45.5h-3.21v-.5h3.56l.07,1.77h-.56l-.31-1.77ZM321.78,129.86h-2.25v-.46h2.25v.46ZM323.35,131.27l-.07,1.77h-3.76v-.5h3.41l-.45.5.31-1.77h.56ZM321.46,129.51l.15-1.06h.45v2.36h-.45l-.15-1.11v-.2Z"/>
          <path class="cls-26" d="M329.78,131.48c0-.65-.39-.94-1.26-1.28l-.38-.15c-1.02-.4-1.71-.98-1.71-1.99,0-1.15.97-1.84,2.23-1.84.67,0,1.2.21,1.62.53l-.06,1.29h-.6l-.28-1.5.64.33v.5c-.49-.48-.86-.65-1.38-.65-.78,0-1.37.39-1.37,1.14,0,.63.41,1,1.14,1.28l.39.15c1.32.51,1.82,1.09,1.82,2.02,0,1.18-.99,1.89-2.35,1.89-.75,0-1.48-.24-1.93-.53l.06-1.39h.6l.26,1.53-.65-.28v-.48c.62.45.96.65,1.63.65.95,0,1.57-.44,1.57-1.22Z"/>
          <path class="cls-26" d="M333.16,132.65l1-.15h.2l1.1.15v.4h-2.29v-.4ZM336.13,126.32h.6l2.29,6.73h-.93l-2-5.97h.23l-2.03,5.97h-.47l2.31-6.73ZM334.96,130.4h2.69l.16.46h-3.01l.16-.46ZM336.92,132.65l1.25-.15h.2l1.24.15v.4h-2.69v-.4Z"/>
          <path class="cls-26" d="M342.41,132.65l1.05-.15h.2l1.15.15v.4h-2.39v-.4ZM343.04,126.68l.62.24-1.2-.15v-.4h1.5l4.13,5.69v1.06h-.32l-4.73-6.44ZM343.26,126.37l.5.4v6.28h-.5v-6.68ZM346.55,126.37h2.39v.4l-1,.15h-.2l-1.2-.15v-.4ZM347.6,126.37h.5v6.75l-.5-.5v-6.25Z"/>
          <path class="cls-26" d="M351.3,132.65l1-.15h.2l1.1.15v.4h-2.29v-.4ZM354.27,126.32h.6l2.29,6.73h-.93l-2-5.97h.23l-2.03,5.97h-.47l2.31-6.73ZM353.11,130.4h2.69l.16.46h-3.01l.16-.46ZM355.07,132.65l1.25-.15h.2l1.24.15v.4h-2.69v-.4Z"/>
          <path class="cls-26" d="M360.59,126.77v-.4h2.79v.4l-1.29.15h-.2l-1.3-.15ZM361.98,132.5v.55h-1.4v-.4l1.3-.15h.1ZM361.5,126.37h.96c-.03,1.03-.03,2.06-.03,3.09v.7c0,.85,0,1.88.03,2.89h-.96c.03-1.03.03-2.06.03-3.09v-.5c0-1.05,0-2.08-.03-3.09ZM365.64,131.17l-.1,1.87h-3.56v-.5h3.21l-.55.5.4-1.87h.6Z"/>
        </g>
        <g>
          <g>
            <path class="cls-33" d="M190.07,111.85c-3.81,0-6.92-3.04-6.92-6.78v-20.61c0-3.74,3.1-6.78,6.92-6.78h4.32c4.51,0,7.79,2.91,7.79,6.92v5.63c0,.59-.29,1.15-.78,1.48-.31.21-.67.32-1.03.32-.21,0-.43-.04-.63-.11,0,0-6.93-2.59-6.95-2.6v6.22c.21-.09.44-.14.68-.14h7.95c1,0,1.81.81,1.81,1.81,0,.71-.42,1.42-1.05,1.72v6.01c0,4.01-3.27,6.92-7.79,6.92h-4.32Z"/>
            <path class="cls-33" d="M213.39,111.85c-.18,0-.36-.03-.52-.08-.17.05-.34.08-.52.08h-7.82c-.87,0-1.61-.61-1.77-1.46-.13-.7.16-1.4.71-1.8v-27.62c-.58-.4-.89-1.12-.75-1.83.16-.85.91-1.46,1.77-1.46h10.83c3.9,0,6.96,3,6.96,6.83v9.43c0,1.43-.44,2.79-1.24,3.93.89,1.15,1.24,2.68,1.24,4.02v6.71c.55.4.84,1.1.71,1.8-.16.85-.91,1.47-1.77,1.47h-7.82Z"/>
            <path class="cls-33" d="M231.47,111.85c-4.51,0-7.79-2.91-7.79-6.92v-23.97c-.6-.41-.9-1.15-.75-1.87.18-.83.92-1.42,1.76-1.42h7.08c.58,0,1.09.27,1.42.69.33-.42.84-.69,1.42-.69h7.08c.85,0,1.58.59,1.76,1.42.16.73-.15,1.46-.74,1.87v23.97c0,4.01-3.24,6.92-7.7,6.92h-3.54Z"/>
            <path class="cls-33" d="M245.18,111.85c-.85,0-1.59-.6-1.77-1.43-.16-.74.17-1.49.79-1.89l5.77-18.6-3.6,1.44c-.22.09-.44.13-.67.13-.36,0-.71-.1-1.01-.31-.5-.34-.79-.9-.79-1.49v-10.22c0-1,.81-1.81,1.81-1.81h16.2c.84,0,1.56.57,1.76,1.39.18.74-.14,1.51-.77,1.92,0,.01-5.66,18.31-5.66,18.31l2.84-1.1c.21-.08.43-.12.65-.12.36,0,.71.11,1.02.31.49.34.79.9.79,1.49v10.18c0,1-.81,1.81-1.81,1.81h-15.55Z"/>
            <path class="cls-16" d="M189.2,110.98c-3.81,0-6.92-3.04-6.92-6.78v-20.61c0-3.74,3.1-6.78,6.92-6.78h4.32c4.51,0,7.79,2.91,7.79,6.92v5.63c0,.59-.29,1.15-.78,1.48-.31.21-.67.32-1.03.32-.21,0-.43-.04-.63-.11,0,0-6.93-2.59-6.95-2.6v6.22c.21-.09.44-.14.68-.14h7.95c1,0,1.81.81,1.81,1.81,0,.71-.42,1.42-1.05,1.72v6.01c0,4.01-3.27,6.92-7.79,6.92h-4.32Z"/>
            <path class="cls-16" d="M212.52,110.98c-.18,0-.36-.03-.52-.08-.17.05-.34.08-.52.08h-7.82c-.87,0-1.61-.61-1.77-1.46-.13-.7.16-1.4.71-1.8v-27.62c-.58-.4-.89-1.12-.75-1.83.16-.85.91-1.46,1.77-1.46h10.83c3.9,0,6.96,3,6.96,6.83v9.43c0,1.43-.44,2.79-1.24,3.93.89,1.15,1.24,2.68,1.24,4.02v6.71c.55.4.84,1.1.71,1.8-.16.85-.91,1.47-1.77,1.47h-7.82Z"/>
            <path class="cls-16" d="M230.6,110.98c-4.51,0-7.79-2.91-7.79-6.92v-23.97c-.6-.41-.9-1.15-.75-1.87.18-.83.92-1.42,1.76-1.42h7.08c.58,0,1.09.27,1.42.69.33-.42.84-.69,1.42-.69h7.08c.85,0,1.58.59,1.76,1.42.16.73-.15,1.46-.74,1.87v23.97c0,4.01-3.24,6.92-7.7,6.92h-3.54Z"/>
            <path class="cls-16" d="M244.31,110.98c-.85,0-1.59-.6-1.77-1.43-.16-.74.17-1.49.79-1.89l5.77-18.6-3.6,1.44c-.22.09-.44.13-.67.13-.36,0-.71-.1-1.01-.31-.5-.34-.79-.9-.79-1.49v-10.22c0-1,.81-1.81,1.81-1.81h16.2c.84,0,1.56.57,1.76,1.39.18.74-.14,1.51-.77,1.92,0,.01-5.66,18.31-5.66,18.31l2.84-1.1c.21-.08.43-.12.65-.12.36,0,.71.11,1.02.31.49.34.79.9.79,1.49v10.18c0,1-.81,1.81-1.81,1.81h-15.55Z"/>
            <path class="cls-26" d="M188.34,110.11c-3.81,0-6.92-3.04-6.92-6.78v-20.61c0-3.74,3.1-6.78,6.92-6.78h4.32c4.51,0,7.79,2.91,7.79,6.92v5.63c0,.59-.29,1.15-.78,1.48-.31.21-.67.32-1.03.32-.21,0-.43-.04-.63-.11,0,0-6.93-2.59-6.95-2.6v6.22c.21-.09.44-.14.68-.14h7.95c1,0,1.81.81,1.81,1.81,0,.71-.42,1.42-1.05,1.72v6.01c0,4.01-3.27,6.92-7.79,6.92h-4.32Z"/>
            <path class="cls-26" d="M211.65,110.11c-.18,0-.36-.03-.52-.08-.17.05-.34.08-.52.08h-7.82c-.87,0-1.61-.61-1.77-1.46-.13-.7.16-1.4.71-1.8v-27.62c-.58-.4-.89-1.12-.75-1.83.16-.85.91-1.46,1.77-1.46h10.83c3.9,0,6.96,3,6.96,6.83v9.43c0,1.43-.44,2.79-1.24,3.93.89,1.15,1.24,2.68,1.24,4.02v6.71c.55.4.84,1.1.71,1.8-.16.85-.91,1.47-1.77,1.47h-7.82Z"/>
            <path class="cls-26" d="M229.73,110.11c-4.51,0-7.79-2.91-7.79-6.92v-23.97c-.6-.41-.9-1.15-.75-1.87.18-.83.92-1.42,1.76-1.42h7.08c.58,0,1.09.27,1.42.69.33-.42.84-.69,1.42-.69h7.08c.85,0,1.58.59,1.76,1.42.16.73-.15,1.46-.74,1.87v23.97c0,4.01-3.24,6.92-7.7,6.92h-3.54Z"/>
            <path class="cls-26" d="M243.44,110.11c-.85,0-1.59-.6-1.77-1.43-.16-.74.17-1.49.79-1.89l5.77-18.6-3.6,1.44c-.22.09-.44.13-.67.13-.36,0-.71-.1-1.01-.31-.5-.34-.79-.9-.79-1.49v-10.22c0-1,.81-1.81,1.81-1.81h16.2c.84,0,1.56.57,1.76,1.39.18.74-.14,1.51-.77,1.92,0,.01-5.66,18.31-5.66,18.31l2.84-1.1c.21-.08.43-.12.65-.12.36,0,.71.11,1.02.31.49.34.79.9.79,1.49v10.18c0,1-.81,1.81-1.81,1.81h-15.55Z"/>
            <path class="cls-29" d="M187.47,109.25c-3.81,0-6.92-3.04-6.92-6.78v-20.61c0-3.74,3.1-6.78,6.92-6.78h4.32c4.51,0,7.79,2.91,7.79,6.92v5.63c0,.59-.29,1.15-.78,1.48-.31.21-.67.32-1.03.32-.21,0-.43-.04-.63-.11,0,0-6.93-2.59-6.95-2.6v6.22c.21-.09.44-.14.68-.14h7.95c1,0,1.81.81,1.81,1.81,0,.71-.42,1.42-1.05,1.72v6.01c0,4.01-3.27,6.92-7.79,6.92h-4.32Z"/>
            <path class="cls-29" d="M210.79,109.25c-.18,0-.36-.03-.52-.08-.17.05-.34.08-.52.08h-7.82c-.87,0-1.61-.61-1.77-1.46-.13-.7.16-1.4.71-1.8v-27.62c-.58-.4-.89-1.12-.75-1.83.16-.85.91-1.46,1.77-1.46h10.83c3.9,0,6.96,3,6.96,6.83v9.43c0,1.43-.44,2.79-1.24,3.93.89,1.15,1.24,2.68,1.24,4.02v6.71c.55.4.84,1.1.71,1.8-.16.85-.91,1.47-1.77,1.47h-7.82Z"/>
            <path class="cls-29" d="M228.87,109.25c-4.51,0-7.79-2.91-7.79-6.92v-23.97c-.6-.41-.9-1.15-.75-1.87.18-.83.92-1.42,1.76-1.42h7.08c.58,0,1.09.27,1.42.69.33-.42.84-.69,1.42-.69h7.08c.85,0,1.58.59,1.76,1.42.16.73-.15,1.46-.74,1.87v23.97c0,4.01-3.24,6.92-7.7,6.92h-3.54Z"/>
            <path class="cls-29" d="M242.58,109.25c-.85,0-1.59-.6-1.77-1.43-.16-.74.17-1.49.79-1.89l5.77-18.6-3.6,1.44c-.22.09-.44.13-.67.13-.36,0-.71-.1-1.01-.31-.5-.34-.79-.9-.79-1.49v-10.22c0-1,.81-1.81,1.81-1.81h16.2c.84,0,1.56.57,1.76,1.39.18.74-.14,1.51-.77,1.92,0,.01-5.66,18.31-5.66,18.31l2.84-1.1c.21-.08.43-.12.65-.12.36,0,.71.11,1.02.31.49.34.79.9.79,1.49v10.18c0,1-.81,1.81-1.81,1.81h-15.55Z"/>
            <path class="cls-12" d="M187.47,108.21c-3.24,0-5.88-2.58-5.88-5.75v-20.61c0-3.17,2.64-5.75,5.88-5.75h4.32c3.98,0,6.76,2.42,6.76,5.88v5.63c0,.25-.12.49-.33.64-.13.09-.28.14-.44.14-.09,0-.18-.02-.27-.05l-6.9-2.58c-.3-.11-.5-.4-.5-.72v-2.71c0-.19-.18-.41-.45-.41-.29,0-.49.2-.49.36v19.74c0,.16.2.36.45.36.31,0,.49-.21.49-.41v-7.38c0-.43.35-.77.77-.77h7.95c.43,0,.77.35.77.77,0,.33-.21.72-.53.82l-.26.09c-.12.05-.25.24-.26.32v6.5c0,3.46-2.78,5.88-6.76,5.88h-4.32Z"/>
            <path class="cls-12" d="M210.79,108.21c-.2,0-.39-.08-.52-.2-.14.13-.32.2-.52.2h-7.82c-.37,0-.69-.26-.76-.63-.07-.36.13-.73.47-.86.16-.06.26-.23.26-.42v-28.43s-.17-.24-.3-.29c-.34-.14-.54-.5-.47-.87.07-.36.39-.63.76-.63h10.83c3.32,0,5.93,2.55,5.93,5.8v9.43c0,1.47-.59,2.91-1.58,3.97,1.45,1.18,1.58,3.27,1.58,3.98v7.08c0,.16.11.31.26.37.34.14.54.5.47.86-.07.36-.39.63-.76.63h-7.82ZM209.64,106.26c0,.15.14.36.4.47.09.04.16.09.23.15.08-.07.17-.13.28-.17.16-.05.34-.17.34-.45,0,0,0-9.55,0-9.58-.02,0-1.25,0-1.25,0v9.58ZM210.26,81.92c-.34,0-.62.16-.62.36v8.08c0,.14.25.36.62.36s.63-.22.63-.36v-8.08c0-.14,0-.36-.49-.36h-.13Z"/>
            <path class="cls-12" d="M228.87,108.21c-3.98,0-6.76-2.42-6.76-5.88v-24.28c0-.28-.21-.42-.34-.48-.33-.15-.51-.51-.43-.87.08-.36.39-.61.76-.61h7.08c.43,0,.77.35.77.77v25.11c0,.17.3.41.58.41.37,0,.71-.28.71-.41v-25.11c0-.43.35-.77.77-.77h7.08c.36,0,.68.25.76.61.08.36-.1.72-.43.87-.29.13-.33.31-.33.48v24.28c0,3.46-2.74,5.88-6.67,5.88h-3.54Z"/>
            <path class="cls-12" d="M242.58,108.21c-.37,0-.68-.26-.76-.61s.11-.72.44-.87c.17-.07.28-.21.29-.3,0-.08,0-.11.03-.19l7.55-24.33h-1.67v3.33c0,.32-.19.6-.49.72l-4.59,1.84c-.09.04-.19.06-.29.06-.15,0-.3-.04-.43-.13-.21-.14-.34-.39-.34-.64v-10.22c0-.43.35-.77.77-.77h16.2c.36,0,.67.25.75.6.08.35-.09.71-.41.87-.13.06-.29.21-.33.42l-6.31,20.46s.08-.04.12-.06l4.72-1.84c.09-.04.19-.05.28-.05.15,0,.31.04.44.14.21.14.34.38.34.64v10.18c0,.43-.35.77-.77.77h-15.55ZM252.64,102.39v-2.73l-.84,2.73h.84Z"/>
            <g>
              <path class="cls-14" d="M190.87,94.6h7.95v.09l-.26.09c-.44.18-.79.66-.79,1.05v6.51c0,2.84-2.27,5.11-5.98,5.11h-4.32c-2.84,0-5.11-2.23-5.11-4.98v-20.61c0-2.75,2.27-4.98,5.11-4.98h4.32c3.71,0,5.98,2.27,5.98,5.11v5.63l-6.9-2.58v-2.71c0-.61-.52-1.18-1.22-1.18h-.04c-.66,0-1.22.52-1.22,1.14v19.74c0,.61.57,1.14,1.22,1.14h.04c.7,0,1.22-.57,1.22-1.18v-7.38Z"/>
              <path class="cls-13" d="M217.86,106.35c0,.48.31.92.74,1.09h-7.82c.52-.17.87-.61.87-1.18v-9.48c0-.7-.26-.87-1.14-.87h-1.66v10.35c0,.48.35.96.87,1.18h-7.82c.44-.17.74-.61.74-1.14v-28.43c0-.31-.35-.83-.79-1.01h10.83c2.93,0,5.15,2.27,5.15,5.02v9.43c0,1.7-.87,3.23-2.14,4.1,1.66.57,2.14,2.45,2.14,3.84v7.08ZM210.26,91.5c.79,0,1.4-.52,1.4-1.14v-8.08c0-.7-.48-1.14-1.27-1.14h-.13c-.79,0-1.4.48-1.4,1.14v8.08c0,.61.61,1.14,1.4,1.14Z"/>
              <path class="cls-4" d="M232.01,76.87h7.08c-.48.22-.79.61-.79,1.18v24.28c0,2.84-2.18,5.11-5.9,5.11h-3.54c-3.71,0-5.98-2.27-5.98-5.11v-24.28c0-.52-.31-.96-.79-1.18h7.08v25.11c0,.65.7,1.18,1.35,1.18h.04c.66,0,1.44-.52,1.44-1.18v-25.11Z"/>
              <path class="cls-31" d="M243.1,76.87h16.2c-.35.18-.66.52-.74.96v.04l-7.82,25.29h2.18c.31,0,.48-.17.48-.39v-3.67l4.72-1.84v10.18h-15.55c.39-.17.7-.52.74-.92v-.04l7.86-25.33h-2.97c-.31,0-.52.22-.52.39v3.71l-4.59,1.84v-10.22Z"/>
            </g>
          </g>
          <g>
            <path class="cls-33" d="M321.04,85.13c-.2-1.12-1.01-2.03-2.09-2.37-.3-.09-.6-.14-.91-.14-.81,0-1.58.32-2.16.89-1.03,1.03-2.16,1.94-3.35,2.73-1.96-4.28-5.42-7.74-9.7-9.7.79-1.19,1.7-2.32,2.73-3.35.81-.81,1.1-1.98.76-3.07-.34-1.09-1.25-1.89-2.37-2.09-1.88-.34-5.59-.92-9.28-.92s-7.4.58-9.28.92c-1.12.2-2.03,1.01-2.37,2.09-.34,1.09-.05,2.26.76,3.07,1.03,1.03,1.94,2.16,2.73,3.35-4.28,1.96-7.74,5.42-9.7,9.7-1.19-.79-2.32-1.7-3.35-2.73-.58-.58-1.35-.9-2.16-.9-.31,0-.62.05-.91.14-1.09.34-1.89,1.25-2.09,2.37-.34,1.88-.92,5.59-.92,9.28s.58,7.4.92,9.28c.2,1.12,1.01,2.03,2.09,2.37.3.09.6.14.91.14.81,0,1.58-.32,2.16-.89,1.03-1.03,2.16-1.94,3.35-2.73,1.96,4.28,5.42,7.74,9.7,9.7-.79,1.19-1.7,2.32-2.73,3.35-.81.81-1.1,1.98-.76,3.07.34,1.09,1.25,1.89,2.37,2.09,1.88.34,5.58.92,9.28.92s7.4-.58,9.28-.92c1.12-.2,2.03-1.01,2.37-2.09.34-1.09.05-2.27-.76-3.07-1.03-1.03-1.94-2.16-2.73-3.35,4.28-1.96,7.74-5.42,9.7-9.7,1.19.79,2.32,1.7,3.35,2.73.58.58,1.35.9,2.16.9.31,0,.62-.05.91-.14,1.09-.34,1.89-1.25,2.1-2.37.34-1.88.92-5.6.92-9.28s-.58-7.39-.92-9.28ZM301.22,89.75l-1.52.03c-.13-.15-.27-.29-.42-.42l.03-1.52c.02-1.04.12-2.07.28-3.08,2.02,1.04,3.66,2.69,4.7,4.7-1.01.17-2.04.26-3.08.28ZM299.32,100.97l-.03-1.52c.15-.13.29-.27.42-.42l1.52.03c1.04.02,2.07.12,3.08.28-1.04,2.02-2.69,3.66-4.7,4.7-.17-1.01-.26-2.04-.28-3.08ZM290,87.85l.03,1.52c-.15.13-.29.27-.42.42l-1.52-.03c-1.04-.02-2.07-.12-3.08-.28,1.04-2.02,2.69-3.66,4.7-4.7.17,1.01.26,2.04.28,3.08ZM285.02,99.35c1.01-.17,2.04-.26,3.08-.28l1.52-.03c.13.15.27.29.42.42l-.03,1.52c-.02,1.04-.12,2.07-.28,3.08-2.02-1.04-3.66-2.69-4.7-4.7Z"/>
            <path class="cls-16" d="M320.4,84.5c-.2-1.12-1.01-2.03-2.09-2.37-.3-.09-.6-.14-.91-.14-.81,0-1.58.32-2.16.89-1.03,1.03-2.16,1.94-3.35,2.73-1.96-4.28-5.42-7.74-9.7-9.7.79-1.19,1.7-2.32,2.73-3.35.81-.81,1.1-1.98.76-3.07-.34-1.09-1.25-1.89-2.37-2.09-1.88-.34-5.59-.92-9.28-.92s-7.4.58-9.28.92c-1.12.2-2.03,1.01-2.37,2.09-.34,1.09-.05,2.26.76,3.07,1.03,1.03,1.94,2.16,2.73,3.35-4.28,1.96-7.74,5.42-9.7,9.7-1.19-.79-2.32-1.7-3.35-2.73-.58-.58-1.35-.9-2.16-.9-.31,0-.62.05-.91.14-1.09.34-1.89,1.25-2.09,2.37-.34,1.88-.92,5.59-.92,9.28s.58,7.4.92,9.28c.2,1.12,1.01,2.03,2.09,2.37.3.09.6.14.91.14.81,0,1.58-.32,2.16-.89,1.03-1.03,2.16-1.94,3.35-2.73,1.96,4.28,5.42,7.74,9.7,9.7-.79,1.19-1.7,2.32-2.73,3.35-.81.81-1.1,1.98-.76,3.07.34,1.09,1.25,1.89,2.37,2.09,1.88.34,5.58.92,9.28.92s7.4-.58,9.28-.92c1.12-.2,2.03-1.01,2.37-2.09.34-1.09.05-2.27-.76-3.07-1.03-1.03-1.94-2.16-2.73-3.35,4.28-1.96,7.74-5.42,9.7-9.7,1.19.79,2.32,1.7,3.35,2.73.58.58,1.35.9,2.16.9.31,0,.62-.05.91-.14,1.09-.34,1.89-1.25,2.1-2.37.34-1.88.92-5.6.92-9.28s-.58-7.39-.92-9.28ZM300.59,89.12l-1.52.03c-.13-.15-.27-.29-.42-.42l.03-1.52c.02-1.04.12-2.07.28-3.08,2.02,1.04,3.66,2.69,4.7,4.7-1.01.17-2.04.26-3.08.28ZM298.68,100.34l-.03-1.52c.15-.13.29-.27.42-.42l1.52.03c1.04.02,2.07.12,3.08.28-1.04,2.02-2.69,3.66-4.7,4.7-.17-1.01-.26-2.04-.28-3.08ZM289.37,87.21l.03,1.52c-.15.13-.29.27-.42.42l-1.52-.03c-1.04-.02-2.07-.12-3.08-.28,1.04-2.02,2.69-3.66,4.7-4.7.17,1.01.26,2.04.28,3.08ZM284.39,98.71c1.01-.17,2.04-.26,3.08-.28l1.52-.03c.13.15.27.29.42.42l-.03,1.52c-.02,1.04-.12,2.07-.28,3.08-2.02-1.04-3.66-2.69-4.7-4.7Z"/>
            <path class="cls-26" d="M319.77,83.86c-.2-1.12-1.01-2.03-2.09-2.37-.3-.09-.6-.14-.91-.14-.81,0-1.58.32-2.16.89-1.03,1.03-2.16,1.94-3.35,2.73-1.96-4.28-5.42-7.74-9.7-9.7.79-1.19,1.7-2.32,2.73-3.35.81-.81,1.1-1.98.76-3.07-.34-1.09-1.25-1.89-2.37-2.09-1.88-.34-5.59-.92-9.28-.92s-7.4.58-9.28.92c-1.12.2-2.03,1.01-2.37,2.09-.34,1.09-.05,2.26.76,3.07,1.03,1.03,1.94,2.16,2.73,3.35-4.28,1.96-7.74,5.42-9.7,9.7-1.19-.79-2.32-1.7-3.35-2.73-.58-.58-1.35-.9-2.16-.9-.31,0-.62.05-.91.14-1.09.34-1.89,1.25-2.09,2.37-.34,1.88-.92,5.59-.92,9.28s.58,7.4.92,9.28c.2,1.12,1.01,2.03,2.09,2.37.3.09.6.14.91.14.81,0,1.58-.32,2.16-.89,1.03-1.03,2.16-1.94,3.35-2.73,1.96,4.28,5.42,7.74,9.7,9.7-.79,1.19-1.7,2.32-2.73,3.35-.81.81-1.1,1.98-.76,3.07.34,1.09,1.25,1.89,2.37,2.09,1.88.34,5.58.92,9.28.92s7.4-.58,9.28-.92c1.12-.2,2.03-1.01,2.37-2.09.34-1.09.05-2.27-.76-3.07-1.03-1.03-1.94-2.16-2.73-3.35,4.28-1.96,7.74-5.42,9.7-9.7,1.19.79,2.32,1.7,3.35,2.73.58.58,1.35.9,2.16.9.31,0,.62-.05.91-.14,1.09-.34,1.89-1.25,2.1-2.37.34-1.88.92-5.6.92-9.28s-.58-7.39-.92-9.28ZM299.95,88.48l-1.52.03c-.13-.15-.27-.29-.42-.42l.03-1.52c.02-1.04.12-2.07.28-3.08,2.02,1.04,3.66,2.69,4.7,4.7-1.01.17-2.04.26-3.08.28ZM298.05,99.7l-.03-1.52c.15-.13.29-.27.42-.42l1.52.03c1.04.02,2.07.12,3.08.28-1.04,2.02-2.69,3.66-4.7,4.7-.17-1.01-.26-2.04-.28-3.08ZM288.74,86.58l.03,1.52c-.15.13-.29.27-.42.42l-1.52-.03c-1.04-.02-2.07-.12-3.08-.28,1.04-2.02,2.69-3.66,4.7-4.7.17,1.01.26,2.04.28,3.08ZM283.75,98.08c1.01-.17,2.04-.26,3.08-.28l1.52-.03c.13.15.27.29.42.42l-.03,1.52c-.02,1.04-.12,2.07-.28,3.08-2.02-1.04-3.66-2.69-4.7-4.7Z"/>
            <path class="cls-29" d="M319.14,83.23c-.2-1.12-1.01-2.03-2.09-2.37-.3-.09-.6-.14-.91-.14-.81,0-1.58.32-2.16.89-1.03,1.03-2.16,1.94-3.35,2.73-1.96-4.28-5.42-7.74-9.7-9.7.79-1.19,1.7-2.32,2.73-3.35.81-.81,1.1-1.98.76-3.07-.34-1.09-1.25-1.89-2.37-2.09-1.88-.34-5.59-.92-9.28-.92s-7.4.58-9.28.92c-1.12.2-2.03,1.01-2.37,2.09-.34,1.09-.05,2.26.76,3.07,1.03,1.03,1.94,2.16,2.73,3.35-4.28,1.96-7.74,5.42-9.7,9.7-1.19-.79-2.32-1.7-3.35-2.73-.58-.58-1.35-.9-2.16-.9-.31,0-.62.05-.91.14-1.09.34-1.89,1.25-2.09,2.37-.34,1.88-.92,5.59-.92,9.28s.58,7.4.92,9.28c.2,1.12,1.01,2.03,2.09,2.37.3.09.6.14.91.14.81,0,1.58-.32,2.16-.89,1.03-1.03,2.16-1.94,3.35-2.73,1.96,4.28,5.42,7.74,9.7,9.7-.79,1.19-1.7,2.32-2.73,3.35-.81.81-1.1,1.98-.76,3.07.34,1.09,1.25,1.89,2.37,2.09,1.88.34,5.58.92,9.28.92s7.4-.58,9.28-.92c1.12-.2,2.03-1.01,2.37-2.09.34-1.09.05-2.27-.76-3.07-1.03-1.03-1.94-2.16-2.73-3.35,4.28-1.96,7.74-5.42,9.7-9.7,1.19.79,2.32,1.7,3.35,2.73.58.58,1.35.9,2.16.9.31,0,.62-.05.91-.14,1.09-.34,1.89-1.25,2.1-2.37.34-1.88.92-5.6.92-9.28s-.58-7.39-.92-9.28ZM299.32,87.85l-1.52.03c-.13-.15-.27-.29-.42-.42l.03-1.52c.02-1.04.12-2.07.28-3.08,2.02,1.04,3.66,2.69,4.7,4.7-1.01.17-2.04.26-3.08.28ZM297.41,99.07l-.03-1.52c.15-.13.29-.27.42-.42l1.52.03c1.04.02,2.07.12,3.08.28-1.04,2.02-2.69,3.66-4.7,4.7-.17-1.01-.26-2.04-.28-3.08ZM288.1,85.94l.03,1.52c-.15.13-.29.27-.42.42l-1.52-.03c-1.04-.02-2.07-.12-3.08-.28,1.04-2.02,2.69-3.66,4.7-4.7.17,1.01.26,2.04.28,3.08ZM283.12,97.44c1.01-.17,2.04-.26,3.08-.28l1.52-.03c.13.15.27.29.42.42l-.03,1.52c-.02,1.04-.12,2.07-.28,3.08-2.02-1.04-3.66-2.69-4.7-4.7Z"/>
            <g>
              <g>
                <g>
                  <path class="cls-1" d="M292.76,74c-10.22,0-18.5,8.28-18.5,18.5s8.28,18.5,18.5,18.5,18.5-8.28,18.5-18.5-8.28-18.5-18.5-18.5ZM292.76,104.49c-6.62,0-11.99-5.37-11.99-11.99s5.37-11.99,11.99-11.99,11.99,5.37,11.99,11.99-5.37,11.99-11.99,11.99Z"/>
                  <path class="cls-12" d="M292.76,74c10.22,0,18.5,8.28,18.5,18.5s-8.28,18.5-18.5,18.5-18.5-8.28-18.5-18.5,8.28-18.5,18.5-18.5M292.76,104.49c6.62,0,11.99-5.37,11.99-11.99s-5.37-11.99-11.99-11.99-11.99,5.37-11.99,11.99,5.37,11.99,11.99,11.99M292.76,73.7c-10.37,0-18.8,8.43-18.8,18.8s8.43,18.8,18.8,18.8,18.8-8.43,18.8-18.8-8.43-18.8-18.8-18.8h0ZM292.76,104.19c-6.44,0-11.69-5.24-11.69-11.69s5.24-11.69,11.69-11.69,11.69,5.24,11.69,11.69-5.24,11.69-11.69,11.69h0Z"/>
                </g>
                <g>
                  <path class="cls-10" d="M289.28,88.68l-.05-2.76c-.12-5.82-2.45-11.3-6.56-15.42-.51-.51-.69-1.26-.48-1.95.21-.69.79-1.2,1.5-1.33,1.84-.34,5.48-.9,9.08-.9s7.23.57,9.08.9c.71.13,1.28.64,1.5,1.33.22.69.03,1.43-.48,1.95-4.12,4.12-6.45,9.6-6.56,15.42l-.05,2.76-3.48,3.83-3.48-3.83Z"/>
                  <path class="cls-12" d="M292.76,66.32c3.6,0,7.23.57,9.08.9.71.13,1.28.64,1.5,1.33.22.69.03,1.43-.48,1.95-4.12,4.12-6.45,9.6-6.56,15.42l-.05,2.76-3.48,3.83-3.48-3.83-.05-2.76c-.12-5.82-2.45-11.3-6.56-15.42-.51-.51-.69-1.26-.48-1.95.21-.69.79-1.2,1.5-1.33,1.84-.34,5.48-.9,9.08-.9M292.76,66.05c-3.62,0-7.27.57-9.13.91-.81.15-1.47.73-1.71,1.51-.25.79-.04,1.64.55,2.22,4.07,4.07,6.37,9.48,6.48,15.23l.05,2.76v.1s.07.08.07.08l3.48,3.83.2.22.2-.22,3.48-3.83.07-.08v-.1s.06-2.76.06-2.76c.11-5.75,2.42-11.16,6.48-15.23.58-.58.79-1.43.55-2.22-.25-.79-.9-1.37-1.71-1.51-1.85-.34-5.5-.91-9.13-.91h0Z"/>
                </g>
                <path class="cls-34" d="M292.76,91.18l-2.59-2.86-.05-2.42c-.12-6.05-2.54-11.75-6.82-16.03-.28-.28-.37-.68-.26-1.05.12-.37.43-.64.81-.71,1.82-.33,5.39-.89,8.92-.89s7.1.56,8.92.89c.38.07.69.34.81.71.12.37.02.77-.26,1.05-4.28,4.28-6.7,9.98-6.82,16.03l-.05,2.42-2.59,2.86ZM290.7,88.11l2.05,2.26,2.05-2.26.04-2.22c.12-6.2,2.6-12.02,6.98-16.41.13-.13.18-.32.12-.5-.06-.18-.2-.3-.38-.34h0c-1.8-.33-5.33-.88-8.82-.88s-7.02.55-8.82.88c-.18.03-.33.16-.38.34-.06.18-.01.37.12.5,4.38,4.39,6.86,10.21,6.98,16.41l.04,2.22ZM295.08,88.21h0,0Z"/>
                <g>
                  <path class="cls-27" d="M290.28,85.12l-.09-.27c-.03-.08-.6-1.91,2.68-4.73.4-.34.74-.65,1.04-.92-.62-.9-1.51-2.02-2.51-3.28-2.22-2.8-4.76-6.5-4.78-6.53l-.32-.47.57.04c7.43.56,9.42,6.66,9.42,7.46v.16c.01.75-.06,1.21-1.65,2.7.5.77.75,1.32.75,1.76,0,1.07-1.7,2.82-4.84,3.98l-.26.1ZM294.22,79.66c-.29.26-.62.55-.99.87-2.22,1.91-2.53,3.27-2.54,3.84,2.83-1.11,4.15-2.63,4.15-3.34,0-.3-.23-.78-.62-1.38ZM287.4,69.57c.76,1.1,2.69,3.83,4.43,6.02,1.08,1.36,1.9,2.41,2.49,3.24,1.43-1.35,1.42-1.69,1.41-2.23,0-.05,0-.11,0-.17,0-.72-1.78-6.07-8.33-6.86Z"/>
                  <path class="cls-24" d="M295.23,85.12l-.26-.1c-3.14-1.15-4.84-2.91-4.84-3.98,0-.43.25-.99.75-1.76-1.59-1.49-1.66-1.95-1.65-2.7v-.16c0-.8,1.99-6.9,9.42-7.46l.57-.04-.32.47s-2.57,3.74-4.78,6.53c-1,1.26-1.89,2.38-2.51,3.28.3.27.64.57,1.04.92,3.28,2.82,2.71,4.66,2.68,4.73l-.09.27ZM291.29,79.66c-.39.6-.62,1.08-.62,1.38,0,.71,1.32,2.23,4.15,3.34-.01-.57-.32-1.94-2.54-3.84-.37-.32-.7-.61-.99-.87ZM298.11,69.57c-6.55.79-8.33,6.14-8.33,6.86,0,.06,0,.11,0,.17,0,.53-.01.88,1.41,2.23.58-.83,1.41-1.88,2.49-3.24,1.73-2.18,3.66-4.92,4.43-6.02Z"/>
                </g>
                <g>
                  <path class="cls-35" d="M296.58,89.02l2.76-.05c5.82-.12,11.3-2.45,15.42-6.56.51-.51,1.26-.69,1.95-.48.69.21,1.2.79,1.33,1.5.34,1.84.9,5.48.9,9.08s-.57,7.23-.9,9.08c-.13.71-.64,1.28-1.33,1.5-.69.22-1.43.03-1.95-.48-4.12-4.12-9.6-6.45-15.42-6.56l-2.76-.05-3.83-3.48,3.83-3.48Z"/>
                  <path class="cls-12" d="M316.13,81.84c.19,0,.39.03.58.09.69.21,1.2.79,1.33,1.5.34,1.84.9,5.48.9,9.08s-.57,7.23-.9,9.08c-.13.71-.64,1.28-1.33,1.5-.19.06-.39.09-.58.09-.51,0-1-.2-1.37-.57-4.12-4.12-9.6-6.45-15.42-6.56l-2.76-.05-3.83-3.48,3.83-3.48,2.76-.05c5.82-.12,11.3-2.45,15.42-6.56.37-.37.86-.57,1.37-.57M316.13,81.57h0c-.59,0-1.14.23-1.56.65-4.07,4.07-9.48,6.37-15.23,6.48l-2.76.05h-.1s-.08.07-.08.07l-3.83,3.48-.22.2.22.2,3.83,3.48.08.07h.1s2.76.06,2.76.06c5.75.11,11.16,2.42,15.23,6.48.42.42.97.65,1.56.65.22,0,.45-.03.66-.1.79-.25,1.37-.9,1.51-1.71.34-1.85.91-5.5.91-9.13s-.57-7.27-.91-9.13c-.15-.81-.73-1.47-1.51-1.71-.21-.07-.44-.1-.66-.1h0Z"/>
                </g>
                <path class="cls-7" d="M316.13,102.28c-.27,0-.54-.11-.74-.31-4.28-4.28-9.98-6.7-16.03-6.82l-2.42-.05-2.86-2.59,2.86-2.59,2.42-.05c6.05-.12,11.75-2.54,16.03-6.82.28-.28.68-.37,1.05-.26.37.12.64.43.71.81.33,1.81.89,5.39.89,8.92s-.56,7.1-.89,8.92c-.07.38-.34.69-.71.81-.1.03-.21.05-.31.05ZM297.15,94.56l2.22.04c6.2.12,12.02,2.6,16.41,6.98.13.13.32.18.5.12.18-.06.3-.2.34-.38h0c.33-1.8.88-5.33.88-8.82s-.55-7.02-.88-8.82c-.03-.18-.16-.33-.34-.38-.18-.06-.37-.01-.5.12-4.38,4.38-10.21,6.86-16.41,6.98l-2.22.04-2.26,2.05,2.26,2.05Z"/>
                <g>
                  <path class="cls-21" d="M308.56,96.03c-.69,0-1.17-.14-2.58-1.65-.77.5-1.32.75-1.76.75-1.07,0-2.82-1.7-3.98-4.84l-.1-.26.27-.09c.08-.03,1.91-.6,4.73,2.68.34.4.65.74.92,1.04.9-.62,2.02-1.51,3.28-2.51,2.8-2.22,6.5-4.76,6.53-4.78l.47-.32-.04.57c-.56,7.43-6.66,9.42-7.46,9.42h-.16s-.08,0-.11,0ZM306.43,94.06c1.35,1.43,1.69,1.42,2.23,1.41.05,0,.11,0,.17,0,.72,0,6.07-1.78,6.86-8.33-1.1.76-3.83,2.69-6.02,4.43-1.36,1.08-2.41,1.9-3.24,2.49ZM300.88,90.43c1.11,2.83,2.63,4.15,3.34,4.15.3,0,.78-.23,1.38-.62-.26-.29-.55-.62-.87-.99-1.91-2.22-3.27-2.53-3.84-2.54Z"/>
                  <path class="cls-36" d="M316.34,98.97l-.47-.32s-3.74-2.57-6.53-4.78c-1.26-1-2.38-1.89-3.28-2.51-.27.3-.57.64-.92,1.04-2.82,3.28-4.66,2.71-4.73,2.68l-.27-.09.1-.26c1.15-3.14,2.91-4.84,3.98-4.84.43,0,.99.25,1.76.75,1.49-1.59,1.95-1.66,2.7-1.65h.16c.8,0,6.9,1.99,7.46,9.42l.04.57ZM306.43,90.95c.83.58,1.88,1.41,3.24,2.49,2.18,1.73,4.92,3.66,6.02,4.43-.79-6.55-6.14-8.33-6.86-8.33-.06,0-.11,0-.17,0-.53,0-.88-.02-2.23,1.41ZM300.5,94.81h0,0ZM304.22,90.43c-.71,0-2.23,1.32-3.34,4.15.57-.01,1.94-.32,3.84-2.54.32-.37.61-.7.87-.99-.6-.39-1.08-.62-1.38-.62Z"/>
                </g>
                <g>
                  <path class="cls-3" d="M296.24,96.33l.05,2.76c.12,5.82,2.45,11.3,6.56,15.42.51.51.69,1.26.48,1.95-.21.69-.79,1.2-1.5,1.33-1.84.34-5.48.9-9.08.9s-7.23-.57-9.08-.9c-.71-.13-1.28-.64-1.5-1.33-.22-.69-.03-1.43.48-1.95,4.12-4.12,6.45-9.6,6.56-15.42l.05-2.76,3.48-3.83,3.48,3.83Z"/>
                  <path class="cls-12" d="M292.76,92.5l3.48,3.83.05,2.76c.12,5.82,2.45,11.3,6.56,15.42.51.51.69,1.26.48,1.95-.21.69-.79,1.2-1.5,1.33-1.84.34-5.48.9-9.08.9s-7.23-.57-9.08-.9c-.71-.13-1.28-.64-1.5-1.33-.22-.69-.03-1.43.48-1.95,4.12-4.12,6.45-9.6,6.56-15.42l.05-2.76,3.48-3.83M292.76,92.1l-.2.22-3.48,3.83-.07.08v.1s-.06,2.76-.06,2.76c-.11,5.75-2.42,11.16-6.48,15.23-.58.58-.79,1.43-.55,2.22.25.79.9,1.37,1.71,1.51,1.85.34,5.5.91,9.13.91s7.27-.57,9.13-.91c.81-.15,1.47-.73,1.71-1.51.25-.79.04-1.64-.55-2.22-4.07-4.07-6.37-9.48-6.48-15.23l-.05-2.76v-.1s-.07-.08-.07-.08l-3.48-3.83-.2-.22h0Z"/>
                </g>
                <path class="cls-15" d="M292.76,117.79c-3.53,0-7.1-.56-8.92-.89h0c-.38-.07-.69-.34-.81-.71-.12-.37-.02-.77.26-1.05,4.28-4.28,6.7-9.98,6.82-16.03l.05-2.42,2.59-2.86,2.6,2.86.05,2.42c.12,6.05,2.54,11.75,6.82,16.03.28.28.37.68.26,1.05-.12.37-.42.64-.81.71-1.82.33-5.39.89-8.92.89ZM283.94,116.36c1.8.33,5.33.88,8.82.88s7.02-.55,8.82-.88c.18-.03.33-.16.38-.34.06-.18.01-.37-.12-.5-4.38-4.38-6.86-10.21-6.98-16.41l-.04-2.22-2.05-2.26-2.05,2.26-.04,2.22c-.12,6.2-2.6,12.02-6.98,16.41-.13.13-.18.32-.12.5.06.18.2.3.38.34h0Z"/>
                <g>
                  <path class="cls-9" d="M299.22,116.09l-.57-.04c-7.43-.56-9.42-6.66-9.42-7.46v-.16c-.01-.75.06-1.21,1.65-2.7-.5-.77-.75-1.32-.75-1.76,0-1.07,1.7-2.82,4.84-3.98l.26-.1.09.27c.03.08.6,1.91-2.68,4.73-.4.34-.74.65-1.04.92.62.9,1.51,2.02,2.51,3.28,2.22,2.8,4.76,6.5,4.78,6.53l.32.47ZM291.2,106.18c-1.43,1.35-1.42,1.69-1.41,2.23,0,.05,0,.11,0,.17,0,.72,1.78,6.07,8.33,6.86-.76-1.1-2.69-3.83-4.43-6.02-1.08-1.36-1.9-2.41-2.49-3.24ZM294.83,100.63c-2.83,1.11-4.15,2.63-4.15,3.34,0,.3.23.78.62,1.38.29-.26.62-.55.99-.87,2.22-1.91,2.53-3.27,2.54-3.84Z"/>
                  <path class="cls-11" d="M286.29,116.09l.32-.47s2.57-3.74,4.78-6.53c1-1.26,1.89-2.38,2.51-3.28-.3-.27-.64-.57-1.04-.92-3.28-2.82-2.71-4.66-2.68-4.73l.09-.27.26.1c3.14,1.15,4.84,2.91,4.84,3.98,0,.43-.25.99-.75,1.76,1.59,1.49,1.66,1.95,1.65,2.7v.16c0,.8-1.99,6.9-9.42,7.46l-.57.04ZM294.31,106.18c-.58.83-1.41,1.88-2.49,3.24-1.73,2.18-3.66,4.92-4.43,6.02,6.55-.79,8.33-6.14,8.33-6.86,0-.06,0-.11,0-.17,0-.53.01-.88-1.41-2.23ZM290.68,100.63c.01.57.32,1.94,2.54,3.84.37.32.7.61.99.87.39-.6.62-1.08.62-1.38,0-.71-1.32-2.23-4.15-3.34Z"/>
                </g>
                <g>
                  <path class="cls-30" d="M288.93,95.98l-2.76.05c-5.82.12-11.3,2.45-15.42,6.56-.51.51-1.26.69-1.95.48-.69-.21-1.2-.79-1.33-1.5-.34-1.84-.9-5.48-.9-9.08s.57-7.23.9-9.08c.13-.71.64-1.28,1.33-1.5.69-.22,1.43-.03,1.95.48,4.12,4.12,9.6,6.45,15.42,6.56l2.76.05,3.83,3.48-3.83,3.48Z"/>
                  <path class="cls-12" d="M269.38,81.84c.51,0,1,.2,1.37.57,4.12,4.12,9.6,6.45,15.42,6.56l2.76.05,3.83,3.48-3.83,3.48-2.76.05c-5.82.12-11.3,2.45-15.42,6.56-.37.37-.86.57-1.37.57-.19,0-.39-.03-.58-.09-.69-.21-1.2-.79-1.33-1.5-.34-1.84-.9-5.48-.9-9.08s.57-7.23.9-9.08c.13-.71.64-1.28,1.33-1.5.19-.06.39-.09.58-.09M269.38,81.57h0c-.22,0-.45.03-.66.1-.79.25-1.37.9-1.51,1.71-.34,1.85-.91,5.5-.91,9.13s.57,7.27.91,9.13c.15.81.73,1.47,1.51,1.71.21.07.44.1.66.1.59,0,1.14-.23,1.56-.65,4.07-4.07,9.48-6.37,15.23-6.48l2.76-.05h.1s.08-.07.08-.07l3.83-3.48.22-.2-.22-.2-3.83-3.48-.08-.07h-.1s-2.76-.06-2.76-.06c-5.75-.11-11.16-2.42-15.23-6.48-.42-.42-.97-.65-1.56-.65h0Z"/>
                </g>
                <path class="cls-38" d="M269.38,102.28c-.1,0-.21-.02-.31-.05-.37-.12-.64-.43-.71-.81-.33-1.81-.89-5.39-.89-8.92s.56-7.1.89-8.92c.07-.38.34-.69.71-.81.37-.12.77-.02,1.05.26,4.28,4.28,9.98,6.7,16.03,6.82l2.42.05,2.86,2.59-2.86,2.59-2.42.05c-6.05.12-11.75,2.54-16.03,6.82-.2.2-.47.31-.74.31ZM269.38,83.28c-.05,0-.1,0-.15.02-.18.06-.3.2-.34.38h0c-.33,1.8-.88,5.33-.88,8.82s.55,7.02.88,8.82c.03.18.16.33.34.38.18.06.37,0,.5-.12,4.38-4.38,10.21-6.86,16.41-6.98l2.22-.04,2.26-2.05-2.26-2.05-2.22-.04c-6.2-.12-12.02-2.6-16.41-6.98-.1-.1-.22-.15-.35-.15ZM268.63,83.64h0,0Z"/>
                <g>
                  <path class="cls-18" d="M269.17,98.97l.04-.57c.56-7.43,6.66-9.42,7.46-9.42h.16c.75-.01,1.21.06,2.7,1.65.77-.5,1.32-.75,1.76-.75,1.07,0,2.82,1.7,3.98,4.84l.1.26-.27.09c-.08.03-1.91.6-4.73-2.68-.34-.4-.65-.74-.92-1.04-.9.62-2.02,1.51-3.28,2.51-2.8,2.22-6.5,4.76-6.53,4.78l-.47.32ZM276.97,89.53s-.08,0-.12,0c-.05,0-.11,0-.17,0-.72,0-6.07,1.78-6.86,8.33,1.1-.76,3.83-2.69,6.02-4.43,1.36-1.08,2.41-1.9,3.24-2.49-1.25-1.32-1.63-1.42-2.11-1.42ZM279.91,91.04c.26.29.55.62.87.99,1.91,2.22,3.27,2.53,3.84,2.54-1.11-2.83-2.63-4.15-3.34-4.15-.3,0-.78.23-1.38.62Z"/>
                  <path class="cls-6" d="M276.95,96.03s-.08,0-.11,0h-.16c-.8,0-6.9-1.99-7.46-9.42l-.04-.57.47.32s3.74,2.57,6.53,4.78c1.26,1,2.38,1.89,3.28,2.51.27-.3.57-.64.92-1.04,2.82-3.28,4.66-2.71,4.73-2.68l.27.09-.1.26c-1.15,3.14-2.91,4.84-3.98,4.84-.43,0-.99-.25-1.76-.75-1.41,1.51-1.9,1.65-2.58,1.65ZM269.82,87.15c.79,6.55,6.14,8.33,6.86,8.33.06,0,.11,0,.17,0,.53,0,.88.01,2.23-1.41-.83-.58-1.88-1.41-3.24-2.49-2.18-1.73-4.92-3.66-6.02-4.43ZM279.91,93.97c.6.39,1.08.61,1.38.61.71,0,2.23-1.32,3.34-4.15-.57.01-1.94.32-3.84,2.54-.32.37-.61.7-.87.99Z"/>
                </g>
                <g>
                  <path class="cls-5" d="M292.76,98.51c-3.31,0-6.01-2.7-6.01-6.01s2.7-6.01,6.01-6.01,6.01,2.7,6.01,6.01-2.7,6.01-6.01,6.01Z"/>
                  <path class="cls-12" d="M292.76,86.77c3.16,0,5.73,2.57,5.73,5.73s-2.57,5.73-5.73,5.73-5.73-2.57-5.73-5.73,2.57-5.73,5.73-5.73M292.76,86.49c-3.31,0-6.01,2.7-6.01,6.01s2.7,6.01,6.01,6.01,6.01-2.7,6.01-6.01-2.7-6.01-6.01-6.01h0Z"/>
                </g>
                <g>
                  <g>
                    <g>
                      <path class="cls-16" d="M292.78,89.23s2.15,0,3.49.72c0,0-.84-2.33-3.49-.72Z"/>
                      <path class="cls-23" d="M294.48,88.52c.23,0,.46.04.67.11.92.33,1.26,1.24,1.27,1.28.02.06,0,.12-.04.16s-.11.05-.17.02c-1.29-.69-3.4-.71-3.42-.71-.07,0-.13-.05-.14-.11-.02-.06,0-.13.07-.17.65-.39,1.24-.59,1.78-.59ZM295.93,89.63c-.17-.25-.46-.57-.89-.72-.49-.17-1.06-.11-1.71.2.64.04,1.71.17,2.6.53Z"/>
                    </g>
                    <g>
                      <path class="cls-16" d="M292.89,89.23s-2.15,0-3.49.72c0,0,.84-2.33,3.49-.72Z"/>
                      <path class="cls-23" d="M291.19,88.52c.54,0,1.13.2,1.78.59.06.03.09.1.07.17-.02.06-.08.11-.14.11-.02,0-2.13.02-3.42.71-.05.03-.12.02-.17-.02s-.06-.11-.04-.16c.01-.04.35-.95,1.27-1.28.21-.07.43-.11.67-.11ZM292.34,89.11c-.65-.3-1.22-.37-1.71-.2-.43.15-.72.47-.89.72.89-.36,1.96-.48,2.6-.53Z"/>
                    </g>
                  </g>
                  <g>
                    <g>
                      <path class="cls-16" d="M290.64,93.3c.42-.84,1.76-1.13,1.76-1.13,0,0,.65,1.07.22,1.92-.42.84-1.93,1.48-1.93,1.48,0,0-.47-1.43-.05-2.27Z"/>
                      <path class="cls-23" d="M292.4,92.02c.05,0,.1.03.13.07.03.05.68,1.16.23,2.06-.44.88-1.94,1.53-2.01,1.55-.04.02-.08.02-.12,0-.04-.02-.07-.05-.08-.09-.02-.06-.48-1.5-.04-2.38h0c.45-.89,1.8-1.2,1.86-1.21.01,0,.02,0,.03,0ZM290.78,95.36c.39-.19,1.39-.71,1.7-1.34.31-.62-.03-1.4-.17-1.67-.31.09-1.23.39-1.54,1.02-.31.62-.1,1.61,0,1.99ZM290.64,93.3h0,0Z"/>
                    </g>
                    <g>
                      <path class="cls-16" d="M290.45,91.83c.69-.69,2.05-.61,2.05-.61,0,0,.26,1.2-.43,1.89-.69.69-2.34.9-2.34.9,0,0,.03-1.49.72-2.18Z"/>
                      <path class="cls-23" d="M292.37,91.07c.08,0,.13,0,.14,0,.07,0,.12.05.14.12.01.05.27,1.29-.47,2.03-.71.72-2.36.94-2.43.95-.04,0-.09,0-.12-.04-.03-.03-.05-.07-.05-.12,0-.06.04-1.56.76-2.28.6-.6,1.65-.66,2.03-.66ZM289.89,93.83c.44-.08,1.56-.32,2.07-.83.5-.51.45-1.33.41-1.63-.34,0-1.3.05-1.82.57-.5.5-.63,1.49-.66,1.9Z"/>
                    </g>
                    <g>
                      <path class="cls-16" d="M294.92,93.3c-.42-.84-1.76-1.13-1.76-1.13,0,0-.65,1.07-.22,1.92.42.84,1.93,1.48,1.93,1.48,0,0,.47-1.43.05-2.27Z"/>
                      <path class="cls-23" d="M293.17,92.02s.02,0,.03,0c.06.01,1.41.31,1.86,1.21h0c.45.89-.02,2.32-.04,2.38-.01.04-.04.07-.08.09-.04.02-.08.02-.12,0-.06-.03-1.57-.67-2.01-1.55-.46-.9.2-2.01.23-2.06.03-.05.08-.07.13-.07ZM294.79,93.37c-.32-.63-1.23-.93-1.54-1.02-.14.27-.48,1.06-.17,1.67.32.63,1.32,1.16,1.7,1.34.1-.39.32-1.38,0-1.99h0Z"/>
                    </g>
                    <g>
                      <path class="cls-16" d="M295.06,91.83c-.69-.69-2.05-.61-2.05-.61,0,0-.26,1.2.43,1.89.69.69,2.34.9,2.34.9,0,0-.03-1.49-.72-2.18Z"/>
                      <path class="cls-23" d="M293.14,91.07c.38,0,1.43.06,2.03.66.72.73.76,2.22.76,2.28,0,.04-.02.09-.05.12-.03.03-.08.04-.12.04-.07,0-1.72-.23-2.43-.95-.73-.74-.48-1.97-.47-2.03.01-.07.07-.11.14-.12.01,0,.06,0,.14,0ZM295.62,93.83c-.03-.41-.16-1.39-.66-1.9-.52-.52-1.48-.57-1.82-.57-.04.3-.09,1.13.41,1.63.51.52,1.64.76,2.07.83Z"/>
                    </g>
                    <g>
                      <path class="cls-16" d="M289.95,89.98c.83-.84,2.49-.75,2.49-.75,0,0,.31,1.45-.52,2.29s-2.84,1.1-2.84,1.1c0,0,.04-1.81.87-2.65Z"/>
                      <path class="cls-23" d="M292.29,89.08c.1,0,.16,0,.17,0,.07,0,.12.05.14.12.01.06.32,1.54-.56,2.43-.86.87-2.85,1.13-2.93,1.14-.04,0-.09,0-.12-.04-.03-.03-.05-.07-.05-.12,0-.08.05-1.88.91-2.75h0c.72-.72,1.98-.79,2.44-.79ZM292.32,89.38s0,0-.01,0c-.4,0-1.6.06-2.24.7h0c-.63.64-.78,1.9-.82,2.36.5-.09,1.93-.38,2.58-1.03.63-.64.55-1.69.5-2.04Z"/>
                    </g>
                    <g>
                      <path class="cls-16" d="M295.56,89.98c-.83-.84-2.49-.75-2.49-.75,0,0-.31,1.45.52,2.29.83.84,2.84,1.1,2.84,1.1,0,0-.04-1.81-.87-2.65Z"/>
                      <path class="cls-23" d="M293.22,89.08c.46,0,1.72.07,2.44.79.86.87.91,2.67.91,2.75,0,.04-.02.09-.05.12s-.08.04-.12.04c-.08-.01-2.07-.28-2.93-1.14-.88-.89-.57-2.37-.56-2.43.01-.07.07-.11.14-.12.01,0,.07,0,.17,0ZM296.27,92.45c-.03-.47-.19-1.73-.82-2.36-.65-.66-1.88-.7-2.26-.7-.05.35-.14,1.4.5,2.04.65.65,2.07.94,2.58,1.03Z"/>
                    </g>
                    <g>
                      <path class="cls-16" d="M291.82,95.04c0-.85.96-1.55.96-1.55,0,0,.96.69.96,1.55s-.96,1.91-.96,1.91c0,0-.96-1.05-.96-1.91Z"/>
                      <path class="cls-23" d="M292.78,93.34s.06,0,.09.03c.04.03,1.03.75,1.03,1.67s-.96,1.96-1,2.01c-.03.03-.07.05-.11.05h0s-.08-.02-.11-.05c-.04-.04-1-1.11-1-2.01s.99-1.64,1.03-1.67c.03-.02.06-.03.09-.03ZM292.78,96.71c.25-.3.81-1.06.81-1.68s-.59-1.17-.81-1.36c-.23.19-.81.73-.81,1.36s.57,1.38.81,1.68Z"/>
                    </g>
                    <g>
                      <path class="cls-16" d="M291.7,93.28c0-.92,1.08-1.67,1.08-1.67,0,0,1.08.75,1.08,1.67s-1.08,2.06-1.08,2.06c0,0-1.08-1.13-1.08-2.06Z"/>
                      <path class="cls-23" d="M292.78,91.46s.06,0,.09.03c.05.03,1.15.8,1.15,1.79s-1.08,2.11-1.13,2.16c-.03.03-.07.05-.11.05h0s-.08-.02-.11-.05c-.05-.05-1.13-1.19-1.13-2.16s1.1-1.76,1.15-1.79c.03-.02.06-.03.09-.03ZM292.78,95.11c.27-.31.93-1.15.93-1.83s-.69-1.29-.93-1.48c-.25.19-.93.79-.93,1.48s.67,1.52.93,1.83Z"/>
                    </g>
                    <g>
                      <path class="cls-16" d="M291.43,90.83c0-1.15,1.35-2.08,1.35-2.08,0,0,1.35.93,1.35,2.08s-1.35,2.56-1.35,2.56c0,0-1.35-1.41-1.35-2.56Z"/>
                      <path class="cls-23" d="M292.78,88.6s.06,0,.09.03c.06.04,1.42.99,1.42,2.2s-1.34,2.61-1.39,2.67c-.03.03-.07.05-.11.05h0s-.08-.02-.11-.05c-.06-.06-1.39-1.47-1.39-2.67s1.36-2.16,1.42-2.2c.03-.02.06-.03.09-.03ZM292.78,93.17c.31-.36,1.2-1.45,1.2-2.34s-.91-1.67-1.2-1.89c-.29.22-1.2,1-1.2,1.89s.89,1.98,1.2,2.34Z"/>
                    </g>
                  </g>
                </g>
              </g>
              <path class="cls-17" d="M307.71,101.88c-.7-.46-1.33-.56-1.96-.44,0,0,.01,0,.02,0,.36-.1.74-.36,1.03-.79l.07-.11c.35-.55.31-1.3.03-2.05l-.06-.16-.17.06c-.85.3-1.32.71-1.62,1.24-.19.42-.21.86-.19,1.21-.08-.58-.55-1.11-1.25-1.53l-.15-.09-.08.13c-.44.59-.56,1.18-.45,1.76.01.06.03.11.05.16-.13-.15-.29-.3-.47-.45l-.14-.11-.1.11c-.48.56-.74,1.07-.7,1.68,0,.05.01.09.02.13-.11-.16-.24-.33-.38-.49l-.12-.13-.11.1c-.59.44-.88.97-.94,1.56-.01.11-.01.22,0,.32-.09-.23-.2-.46-.36-.7l-.1-.15-.13.07c-.63.39-1.02.8-1.17,1.4-.22.9.26,1.77.29,1.8l.07.11.13-.04s0,0,0,0c0,0,0,0,0,0l-.12.08.03.13s.23,1.04,1.17,1.39c.6.22,1.4.14,2.22-.4l.11-.07.18-.11-.09-.15c-.15-.25-.32-.45-.49-.62.1.05.22.09.34.12.65.16,1.37-.13,2.15-.72l.09-.08.15-.15-.11-.14c-.14-.17-.29-.32-.44-.44.05,0,.09.02.14.02.64.03,1.38-.28,2.01-1.04l.08-.09.14-.16-.13-.12c-.18-.16-.36-.28-.53-.39.06,0,.13.01.2,0,.67-.04,1.28-.52,1.85-1.31l.06-.11.1-.18-.15-.1ZM305.38,99.8c.23-.41.6-.73,1.23-.98.21.63.19,1.21-.11,1.63-.35.52-.93.7-1.21.73-.04-.26-.16-.86.1-1.37ZM304.96,101.43l.04.13h.14s.17,0,.39-.05c-.41.14-.72.38-.94.61,0,0,0,0-.01.01.18-.28.32-.7.3-1.13.03.24.08.41.08.43ZM303.61,99.69c.55.37.86.79.91,1.25.06.58-.28,1.08-.48,1.26-.21-.17-.65-.58-.75-1.13-.1-.46,0-.92.33-1.39ZM302.43,101.19c.49.45.74.91.73,1.39-.02.58-.47,1-.67,1.17-.19-.19-.55-.67-.59-1.24-.03-.46.17-.87.52-1.33ZM301.08,102.51c.41.52.59,1,.51,1.46-.11.57-.58.96-.83,1.07-.16-.22-.45-.75-.39-1.29.03-.47.26-.88.71-1.24ZM298.59,104.74c.11-.45.42-.78.89-1.11.33.57.44,1.09.29,1.54-.19.55-.74.82-.98.93-.12-.24-.33-.81-.2-1.36ZM300.02,107.75c-.59-.21-.84-.75-.94-1.01.25-.14.83-.36,1.43-.25.48.08.92.39,1.28.95-.66.41-1.28.48-1.76.31ZM300.59,106.12c-.49-.08-.96.02-1.3.14.31-.18.68-.47.82-.96.06-.19.08-.39.07-.6.16.4.37.68.39.7l.09.1.13-.05s0,0,0,0c0,0,0,0,0,0l-.11.09.05.13s.14.34.43.66c-.19-.09-.38-.17-.57-.2ZM302.24,106.51c-.62-.14-.96-.64-1.09-.87.25-.14.75-.49,1.37-.47.5.02.98.27,1.42.77-.63.46-1.21.66-1.7.57ZM302.54,104.79c-.5-.02-.91.14-1.22.32,0,0,0,0-.01,0,.27-.23.54-.62.64-1.07.03-.13.02-.26.01-.39.19.29.37.47.4.48l.1.09s.08-.05.12-.07c0,0,0,0,0,0,0,0,0,0,0,0-.03.04-.06.07-.09.1l.07.12s.14.24.39.48c-.13-.03-.27-.06-.41-.06ZM304.16,104.97c-.62-.03-1.02-.47-1.19-.68.2-.21.68-.59,1.29-.66.48-.07.99.11,1.5.53-.51.58-1.09.83-1.59.81ZM304.22,103.24c-.5.07-.91.3-1.2.51.24-.27.51-.65.51-1.16,0-.14-.02-.29-.05-.42.23.27.45.43.48.43l.11.07.11-.09s0,0,0,0c0,0,0,0,0,0l-.08.12.08.11s.18.23.48.43c-.15-.01-.29-.01-.43,0ZM305.87,103.18c-.63.05-1.1-.33-1.3-.51.19-.21.58-.69,1.17-.85.48-.13,1.02-.02,1.58.33-.47.62-.96.98-1.46,1.04Z"/>
              <path class="cls-19" d="M308.45,84.39c-.07-.37-.23-.78-.47-1.2-.02-.04-.04-.07-.07-.1l-.12-.17-.15.09c-.25.15-.44.32-.62.49.04-.1.08-.21.11-.34.06-.32.04-.66-.07-1.03-.13-.36-.35-.73-.65-1.11-.03-.03-.05-.07-.08-.09l-.15-.15-.14.11c-.17.14-.32.29-.44.44,0-.05.02-.09.02-.15.04-.65-.3-1.36-1.03-2.01l-.09-.08c-.05-.05-.11-.09-.16-.13l-.12.13c-.16.18-.28.35-.39.53,0-.06,0-.12,0-.19-.06-.64-.49-1.3-1.32-1.84l-.1-.07c-.06-.04-.12-.08-.18-.11l-.1.15c-.46.69-.58,1.36-.44,1.97,0,0,0-.01,0-.02-.11-.34-.34-.76-.78-1.04l-.11-.07c-.55-.34-1.29-.33-2.05-.02l-.17.07.07.16c.31.83.7,1.33,1.24,1.61.42.2.87.22,1.22.19-.6.09-1.11.52-1.54,1.25l-.09.15s.08.06.12.09c.61.42,1.17.58,1.77.45.06-.01.11-.03.16-.05-.15.13-.3.29-.45.47l-.11.14s.08.06.11.1c.26.26.54.44.81.55.27.13.56.18.86.16.04,0,.09-.01.13-.02-.16.11-.32.24-.48.38l-.13.12.1.11c.22.29.46.51.73.66.25.16.52.26.83.28.11.01.22,0,.33,0-.23.09-.46.2-.7.36l-.15.1.08.13c.36.64.81,1.02,1.39,1.17.89.22,1.77-.26,1.8-.29l.11-.07-.04-.13s0,0,0,0c0,0,0,0,0,0l.08.12.13-.03s1.04-.23,1.39-1.17c.11-.3.15-.65.09-1.03ZM306.18,81.33c.48.62.68,1.19.57,1.7-.12.61-.62.95-.85,1.08-.18-.23-.47-.77-.47-1.37.01-.49.26-.98.76-1.42ZM304.42,79.5c.28.27.49.54.63.8.13.28.19.54.18.79-.03.62-.47,1.03-.68,1.19-.21-.19-.58-.69-.67-1.28-.06-.49.11-1,.54-1.51ZM302.39,77.94c.64.44.99.95,1.03,1.46.06.62-.32,1.08-.5,1.28-.24-.16-.68-.59-.85-1.17-.13-.47-.03-1.01.31-1.57ZM300.05,79.87c-.41-.22-.73-.6-.98-1.23.63-.2,1.21-.18,1.63.12.53.34.69.95.73,1.22-.27.06-.85.14-1.37-.1ZM301.69,80.29l.13-.04v-.13s0-.17-.06-.39c.15.4.38.73.6.96,0,0,0,0,0,0-.28-.18-.67-.34-1.12-.3.25-.03.42-.08.44-.09ZM301.33,81.98c-.45.09-.9-.02-1.39-.33.37-.55.79-.86,1.26-.92.58-.08,1.06.31,1.27.48-.17.21-.58.65-1.14.77ZM302.86,81.31l.07-.11-.09-.11s0,0,0,0c0,0,0,0,0,0l.11.08.1-.08s.22-.18.42-.46c0,0,0-.01.01-.02-.01.15-.02.3,0,.44.07.48.29.87.49,1.17,0,0,0,0,0,0-.27-.23-.65-.47-1.14-.47-.14,0-.28.02-.42.05.27-.23.42-.45.43-.47ZM302.11,83.23c-.23-.08-.45-.22-.66-.41.45-.49.91-.74,1.38-.72.59,0,1,.46,1.18.66-.19.19-.67.55-1.24.59-.23.02-.45-.02-.66-.12ZM304.39,82.9l.09-.1-.07-.12s0,0,0,0c0,0,0,0,0,0l.1.09.12-.07s.24-.14.48-.39c-.03.13-.06.27-.06.41,0,.48.15.91.32,1.23-.23-.27-.58-.56-1.06-.64-.13-.02-.26-.02-.39-.01.29-.19.46-.37.48-.39ZM302.76,84.18c.52-.41,1-.59,1.47-.51.59.09.93.6,1.07.83-.22.16-.75.45-1.31.4-.45-.05-.86-.27-1.23-.71ZM305,86.67c-.43-.12-.82-.4-1.11-.89.57-.33,1.08-.44,1.53-.28.57.18.83.73.93.98-.24.12-.81.33-1.35.2ZM306.28,85.63c-.19-.2-.43-.38-.73-.48-.19-.07-.39-.08-.59-.07.41-.16.68-.37.7-.39l.1-.09s-.03-.09-.05-.13c0,0,0,0,0,0,0,0,0,0,0,0,.03.03.06.07.09.11l.12-.05s.26-.11.53-.32c.04-.03.08-.07.13-.11-.09.19-.17.38-.21.58-.08.48.01.93.13,1.26-.06-.1-.13-.21-.22-.31ZM308.01,85.23c-.21.59-.76.84-1.01.94-.13-.25-.35-.83-.26-1.42.09-.49.41-.93.97-1.29.37.68.49,1.28.3,1.76Z"/>
              <path class="cls-2" d="M287.25,104.63c-.13-.58-.51-.98-1.09-1.36l-.08-.04-.13-.07-.1.15c-.16.24-.27.47-.36.7,0-.11,0-.21,0-.32-.07-.56-.32-1.09-.88-1.5l-.06-.06-.11-.1-.12.13c-.15.16-.28.32-.39.49,0-.04.02-.09.02-.13.04-.59-.2-1.08-.64-1.62l-.06-.06-.1-.11-.14.11c-.18.15-.34.3-.47.45.02-.05.04-.11.05-.16.09-.55,0-1.14-.41-1.69l-.05-.08-.08-.13-.15.09c-.7.42-1.17.94-1.25,1.52.03-.34,0-.79-.19-1.2l-.05-.1c-.31-.47-.76-.86-1.56-1.14l-.17-.06-.06.16c-.3.8-.32,1.59.1,2.15.3.43.68.69,1.04.79,0,0,.01,0,.02,0-.63-.13-1.26-.03-1.96.43l-.15.1.1.18c.57.87,1.22,1.38,1.91,1.42.07,0,.13,0,.2,0-.18.11-.36.23-.53.39l-.13.12.14.16c.66.81,1.42,1.16,2.09,1.13.05,0,.1-.02.14-.02-.15.12-.3.27-.44.44l-.11.14.15.15c.8.67,1.57.96,2.24.81.12-.03.24-.07.34-.12-.18.18-.34.37-.49.62l-.09.15.18.11c.87.58,1.7.69,2.33.46.94-.35,1.15-1.35,1.17-1.39l.03-.13-.11-.08s0,0,0,0c0,0,0,0,0,0l.13.04.07-.11s.51-.9.29-1.8ZM284.43,102.51c.45.35.68.77.71,1.24.06.55-.23,1.07-.39,1.29-.25-.11-.72-.5-.83-1.07-.09-.46.09-.94.51-1.46ZM283.08,101.19c.36.45.55.87.52,1.33-.04.57-.4,1.04-.59,1.24-.2-.18-.65-.59-.67-1.17,0-.48.25-.94.73-1.39ZM281.9,99.69c.33.47.43.93.33,1.39-.1.54-.54.96-.75,1.13-.2-.18-.55-.69-.48-1.26.05-.47.36-.88.91-1.25ZM279.01,100.44c-.3-.41-.32-1-.11-1.63.63.25,1,.57,1.23.98.26.51.14,1.11.1,1.37-.29-.03-.86-.2-1.22-.73ZM280.37,101.55h.14s.04-.13.04-.13c0-.02.05-.17.08-.39-.01.42.13.8.29,1.08-.23-.23-.55-.49-.98-.62.25.06.42.06.44.06ZM279.64,103.18c-.49-.06-.99-.41-1.46-1.04.56-.35,1.1-.45,1.58-.33.59.16.97.64,1.17.85-.2.18-.66.56-1.3.51ZM281.33,102.81l.08-.11-.08-.12s0,0,0,0c0,0,0,0,0,0l.11.09.11-.07s.24-.17.48-.43c-.03.14-.06.28-.05.42,0,.49.25.86.47,1.13-.29-.2-.7-.4-1.17-.48-.14-.02-.29-.02-.43,0,.29-.2.46-.41.48-.43ZM281.35,104.97c-.5.02-1.08-.23-1.59-.81.51-.43,1.02-.6,1.5-.53.61.07,1.09.45,1.29.66-.17.21-.57.66-1.19.68ZM282.95,104.38l.07-.12s-.06-.07-.09-.1c0,0,0,0,0,0,0,0,0,0,0,0,.04.03.07.05.12.07l.1-.09s.21-.19.4-.48c0,.13-.01.26.01.39.09.46.37.82.63,1.06-.31-.17-.72-.35-1.22-.32-.14,0-.27.03-.41.06.25-.24.38-.46.39-.48ZM283.27,106.51c-.49.08-1.07-.11-1.69-.57.44-.5.92-.75,1.42-.77.61-.02,1.12.33,1.37.47-.14.23-.47.73-1.09.87ZM284.78,105.66l.05-.13-.11-.09s0,0,0,0c0,0,0,0,0,0l.13.05.09-.1s.23-.3.39-.7c-.01.2,0,.41.07.6.14.47.49.75.79.94-.34-.11-.79-.18-1.26-.12-.2.03-.39.11-.57.2.29-.32.42-.64.43-.66ZM285.49,107.75c-.48.17-1.1.1-1.76-.31.36-.56.79-.87,1.28-.95.6-.11,1.18.11,1.43.25-.1.25-.36.79-.94,1.01ZM286.72,106.1c-.24-.11-.8-.37-.98-.93-.15-.46-.04-.97.29-1.54.47.33.78.67.89,1.11.13.55-.08,1.12-.2,1.36Z"/>
              <path class="cls-32" d="M286.76,78.36c-.81-.33-1.59-.3-2.16.09-.44.28-.67.7-.78,1.04,0,0,0,.02,0,.02.14-.61.02-1.28-.44-1.97l-.1-.15c-.06.03-.12.07-.18.11-.88.55-1.36,1.24-1.42,1.91,0,.07,0,.13,0,.19-.11-.18-.23-.36-.39-.53l-.12-.13c-.06.04-.11.09-.16.13-.39.35-.69.69-.88,1.05-.18.36-.26.71-.25,1.05,0,.05.02.1.02.15-.13-.15-.27-.3-.44-.44l-.14-.11-.15.15c-.33.4-.57.79-.72,1.17-.13.38-.15.75-.09,1.08.02.12.06.23.11.34-.17-.17-.37-.34-.62-.49l-.15-.09-.12.17c-.55.89-.7,1.7-.46,2.33.36.94,1.35,1.15,1.39,1.17l.13.03.08-.12s0,0,0,0c0,0,0,0,0,0l-.04.13.11.07s.9.51,1.8.29c.29-.07.53-.2.75-.38.23-.18.43-.41.6-.72.01-.03.03-.05.05-.07l.08-.13-.15-.1c-.24-.16-.47-.27-.7-.37.11,0,.22,0,.33,0,.29-.02.56-.11.8-.26.26-.14.49-.34.7-.61.02-.02.03-.05.05-.07l.1-.11-.13-.12c-.16-.15-.32-.28-.48-.38.04,0,.08.02.13.02.58.03,1.1-.19,1.61-.65l.06-.06s.07-.07.11-.1l-.11-.14c-.15-.18-.3-.33-.45-.47.05.02.11.04.16.05.58.12,1.11-.02,1.7-.4l.07-.05s.08-.06.12-.09l-.09-.15c-.43-.73-.93-1.15-1.53-1.25.35.03.79,0,1.22-.19l.1-.05c.48-.29.85-.78,1.14-1.56l.07-.16-.17-.07ZM283.12,77.94c.35.56.45,1.1.31,1.57-.17.58-.61,1.01-.85,1.17-.18-.2-.56-.66-.5-1.28.05-.51.39-1.02,1.03-1.46ZM280.46,80.3c.14-.26.35-.53.63-.8.43.51.6,1.02.54,1.51-.08.59-.46,1.09-.67,1.28-.21-.17-.66-.57-.68-1.19-.01-.25.05-.52.18-.79ZM279.33,81.33c.5.44.75.92.76,1.42,0,.6-.3,1.14-.47,1.37-.23-.14-.73-.47-.85-1.08-.11-.51.09-1.08.57-1.7ZM278.51,86.18c-.25-.1-.79-.36-1.01-.94-.19-.48-.07-1.08.3-1.76.56.36.88.8.97,1.29.09.59-.13,1.17-.26,1.42ZM280.51,86.67c-.55.13-1.11-.08-1.35-.2.1-.25.37-.8.93-.98.45-.15.95-.05,1.53.28-.29.5-.68.78-1.11.89ZM279.96,85.14c-.44.15-.78.48-.95.78,0,0,0,0,0,0,.04-.11.07-.24.09-.37.06-.26.09-.57.03-.89-.04-.2-.12-.39-.21-.58.04.04.08.08.12.11.27.22.51.31.53.32l.12.05s.06-.07.09-.11c0,0,0,0,0,0,0,0,0,0,0,0-.02.04-.04.08-.05.13l.1.09s.3.23.7.39c-.2-.01-.4,0-.59.07ZM281.52,84.89c-.56.05-1.09-.24-1.31-.4.14-.22.48-.74,1.07-.83.47-.08.95.1,1.47.51-.37.44-.79.67-1.23.71ZM281.21,83.31c-.47.08-.84.36-1.06.63,0,0,0,.01-.01.02.17-.32.33-.75.32-1.24,0-.14-.03-.27-.06-.41.24.25.46.38.48.39l.12.07.1-.09s0,0,0,0c0,0,0,0,0,0l-.07.12.09.1s.19.21.48.39c-.13,0-.26-.01-.39.01ZM284.06,82.82c-.22.19-.43.33-.66.41-.21.09-.43.13-.66.12-.57-.04-1.04-.4-1.24-.59.18-.2.59-.66,1.18-.66.47-.01.93.24,1.38.72ZM282.66,81.73c-.48,0-.88.24-1.14.47,0,0,0,0,0,0,.21-.29.42-.69.49-1.17.02-.15.01-.29,0-.44,0,0,0,.01,0,.02.2.28.4.45.42.46l.1.08.11-.08s0,0,0,0c0,0,0,0,0,0l-.09.11.07.11s.17.24.43.47c-.14-.03-.28-.05-.42-.05ZM285.57,81.66c-.49.3-.94.42-1.39.33-.56-.12-.98-.55-1.14-.77.2-.17.68-.55,1.27-.48.47.06.89.37,1.26.92ZM283.15,80.68s0,0,0,0c.23-.24.47-.58.62-1-.06.24-.07.42-.07.43v.13s.13.04.13.04c.02,0,.17.05.39.09-.42-.02-.8.13-1.07.3ZM285.46,79.87c-.52.24-1.1.16-1.37.1.04-.27.19-.88.72-1.22.42-.29,1-.32,1.63-.12-.25.63-.57,1.01-.98,1.23Z"/>
            </g>
          </g>
          <g>
            <path class="cls-33" d="M328.11,111.85c-.85,0-1.58-.59-1.76-1.42-.16-.73.15-1.46.75-1.87v-27.59c-.6-.41-.9-1.14-.75-1.87.18-.83.92-1.42,1.76-1.42h8.04c.87,0,1.62.62,1.78,1.48.14.77-.23,1.53-.89,1.9v19.19c.15-.13.32-.23.51-.3l6.16-2.4c.21-.08.43-.12.66-.12.36,0,.71.11,1.02.31.49.34.79.89.79,1.49v10.83c0,1-.81,1.81-1.81,1.81h-16.25Z"/>
            <path class="cls-33" d="M352.74,111.85c-3.81,0-6.92-3.04-6.92-6.78v-20.61c0-3.74,3.1-6.78,6.92-6.78h4.32c3.81,0,6.92,3.04,6.92,6.78v20.61c0,3.74-3.1,6.78-6.92,6.78h-4.32Z"/>
            <path class="cls-33" d="M383.79,111.85c-.8,0-1.5-.52-1.73-1.28-.2-.65-.01-1.33.45-1.8v-.69c-.02-.21-.03-.44,0-.72v-4.43c-.22.09-.45.14-.68.14-.22,0-.43-.04-.64-.12l-6.51-2.45c-.06-.02-.12-.05-.18-.08v8.05c.65.39,1.01,1.15.86,1.91-.17.84-.89,1.46-1.75,1.46h-7.95c-.86,0-1.6-.61-1.77-1.46-.14-.72.17-1.44.75-1.84v-27.59c-.6-.41-.9-1.15-.75-1.87.18-.83.92-1.42,1.76-1.42h10.7c.21,0,.41.04.61.11l1.69.61,1.61-.6c.2-.07.42-.11.63-.11h4.37c4.51,0,7.79,2.91,7.79,6.92v24c.54.42.84,1.12.7,1.8-.17.84-.86,1.47-1.72,1.47h-8.25Z"/>
            <path class="cls-33" d="M405.58,111.85c-.69,0-1.29-.39-1.59-.96-.3.57-.9.96-1.59.96h-7.29c-.87,0-1.61-.61-1.77-1.47-.13-.7.16-1.39.71-1.8v-24c0-4.01,3.27-6.92,7.79-6.92h4.37c4.51,0,7.79,2.91,7.79,6.92v24c.55.4.84,1.1.71,1.8-.16.85-.91,1.47-1.77,1.47h-7.34Z"/>
            <path class="cls-16" d="M327.24,110.98c-.85,0-1.58-.59-1.76-1.42-.16-.73.15-1.46.75-1.87v-27.59c-.6-.41-.9-1.14-.75-1.87.18-.83.92-1.42,1.76-1.42h8.04c.87,0,1.62.62,1.78,1.48.14.77-.23,1.53-.89,1.9v19.19c.15-.13.32-.23.51-.3l6.16-2.4c.21-.08.43-.12.66-.12.36,0,.71.11,1.02.31.49.34.79.89.79,1.49v10.83c0,1-.81,1.81-1.81,1.81h-16.25Z"/>
            <path class="cls-16" d="M351.88,110.98c-3.81,0-6.92-3.04-6.92-6.78v-20.61c0-3.74,3.1-6.78,6.92-6.78h4.32c3.81,0,6.92,3.04,6.92,6.78v20.61c0,3.74-3.1,6.78-6.92,6.78h-4.32Z"/>
            <path class="cls-16" d="M382.92,110.98c-.8,0-1.5-.52-1.73-1.28-.2-.65-.01-1.33.45-1.8v-.69c-.02-.21-.03-.44,0-.72v-4.43c-.22.09-.45.14-.68.14-.22,0-.43-.04-.64-.12l-6.51-2.45c-.06-.02-.12-.05-.18-.08v8.05c.65.39,1.01,1.15.86,1.91-.17.84-.89,1.46-1.75,1.46h-7.95c-.86,0-1.6-.61-1.77-1.46-.14-.72.17-1.44.75-1.84v-27.59c-.6-.41-.9-1.15-.75-1.87.18-.83.92-1.42,1.76-1.42h10.7c.21,0,.41.04.61.11l1.69.61,1.61-.6c.2-.07.42-.11.63-.11h4.37c4.51,0,7.79,2.91,7.79,6.92v24c.54.42.84,1.12.7,1.8-.17.84-.86,1.47-1.72,1.47h-8.25Z"/>
            <path class="cls-16" d="M404.71,110.98c-.69,0-1.29-.39-1.59-.96-.3.57-.9.96-1.59.96h-7.29c-.87,0-1.61-.61-1.77-1.47-.13-.7.16-1.39.71-1.8v-24c0-4.01,3.27-6.92,7.79-6.92h4.37c4.51,0,7.79,2.91,7.79,6.92v24c.55.4.84,1.1.71,1.8-.16.85-.91,1.47-1.77,1.47h-7.34Z"/>
            <path class="cls-26" d="M326.38,110.11c-.85,0-1.58-.59-1.76-1.42-.16-.73.15-1.46.75-1.87v-27.59c-.6-.41-.9-1.14-.75-1.87.18-.83.92-1.42,1.76-1.42h8.04c.87,0,1.62.62,1.78,1.48.14.77-.23,1.53-.89,1.9v19.19c.15-.13.32-.23.51-.3l6.16-2.4c.21-.08.43-.12.66-.12.36,0,.71.11,1.02.31.49.34.79.89.79,1.49v10.83c0,1-.81,1.81-1.81,1.81h-16.25Z"/>
            <path class="cls-26" d="M351.01,110.11c-3.81,0-6.92-3.04-6.92-6.78v-20.61c0-3.74,3.1-6.78,6.92-6.78h4.32c3.81,0,6.92,3.04,6.92,6.78v20.61c0,3.74-3.1,6.78-6.92,6.78h-4.32Z"/>
            <path class="cls-26" d="M382.06,110.11c-.8,0-1.5-.52-1.73-1.28-.2-.65-.01-1.33.45-1.8v-.69c-.02-.21-.03-.44,0-.72v-4.43c-.22.09-.45.14-.68.14-.22,0-.43-.04-.64-.12l-6.51-2.45c-.06-.02-.12-.05-.18-.08v8.05c.65.39,1.01,1.15.86,1.91-.17.84-.89,1.46-1.75,1.46h-7.95c-.86,0-1.6-.61-1.77-1.46-.14-.72.17-1.44.75-1.84v-27.59c-.6-.41-.9-1.15-.75-1.87.18-.83.92-1.42,1.76-1.42h10.7c.21,0,.41.04.61.11l1.69.61,1.61-.6c.2-.07.42-.11.63-.11h4.37c4.51,0,7.79,2.91,7.79,6.92v24c.54.42.84,1.12.7,1.8-.17.84-.86,1.47-1.72,1.47h-8.25Z"/>
            <path class="cls-26" d="M403.85,110.11c-.69,0-1.29-.39-1.59-.96-.3.57-.9.96-1.59.96h-7.29c-.87,0-1.61-.61-1.77-1.47-.13-.7.16-1.39.71-1.8v-24c0-4.01,3.27-6.92,7.79-6.92h4.37c4.51,0,7.79,2.91,7.79,6.92v24c.55.4.84,1.1.71,1.8-.16.85-.91,1.47-1.77,1.47h-7.34Z"/>
            <path class="cls-29" d="M325.51,109.25c-.85,0-1.58-.59-1.76-1.42-.16-.73.15-1.46.75-1.87v-27.59c-.6-.41-.9-1.14-.75-1.87.18-.83.92-1.42,1.76-1.42h8.04c.87,0,1.62.62,1.78,1.48.14.77-.23,1.53-.89,1.9v19.19c.15-.13.32-.23.51-.3l6.16-2.4c.21-.08.43-.12.66-.12.36,0,.71.11,1.02.31.49.34.79.89.79,1.49v10.83c0,1-.81,1.81-1.81,1.81h-16.25Z"/>
            <path class="cls-29" d="M350.14,109.25c-3.81,0-6.92-3.04-6.92-6.78v-20.61c0-3.74,3.1-6.78,6.92-6.78h4.32c3.81,0,6.92,3.04,6.92,6.78v20.61c0,3.74-3.1,6.78-6.92,6.78h-4.32Z"/>
            <path class="cls-29" d="M381.19,109.25c-.8,0-1.5-.52-1.73-1.28-.2-.65-.01-1.33.45-1.8v-.69c-.02-.21-.03-.44,0-.72v-4.43c-.22.09-.45.14-.68.14-.22,0-.43-.04-.64-.12l-6.51-2.45c-.06-.02-.12-.05-.18-.08v8.05c.65.39,1.01,1.15.86,1.91-.17.84-.89,1.46-1.75,1.46h-7.95c-.86,0-1.6-.61-1.77-1.46-.14-.72.17-1.44.75-1.84v-27.59c-.6-.41-.9-1.15-.75-1.87.18-.83.92-1.42,1.76-1.42h10.7c.21,0,.41.04.61.11l1.69.61,1.61-.6c.2-.07.42-.11.63-.11h4.37c4.51,0,7.79,2.91,7.79,6.92v24c.54.42.84,1.12.7,1.8-.17.84-.86,1.47-1.72,1.47h-8.25Z"/>
            <path class="cls-29" d="M402.98,109.25c-.69,0-1.29-.39-1.59-.96-.3.57-.9.96-1.59.96h-7.29c-.87,0-1.61-.61-1.77-1.47-.13-.7.16-1.39.71-1.8v-24c0-4.01,3.27-6.92,7.79-6.92h4.37c4.51,0,7.79,2.91,7.79,6.92v24c.55.4.84,1.1.71,1.8-.16.85-.91,1.47-1.77,1.47h-7.34Z"/>
            <path class="cls-12" d="M325.51,108.21c-.36,0-.68-.25-.76-.61-.08-.36.1-.72.44-.87.2-.09.33-.3.33-.52v-28.12c0-.22-.13-.43-.33-.52-.33-.15-.51-.51-.44-.87.08-.36.39-.61.76-.61h8.04c.37,0,.69.26.76.63.07.37-.14.73-.48.86-.13.05-.42.19-.42.46v24.34h1.43v-3.38c0-.32.2-.6.49-.72l6.16-2.4c.09-.04.19-.05.28-.05.15,0,.31.04.44.14.21.14.34.38.34.64v10.83c0,.43-.35.77-.77.77h-16.25Z"/>
            <path class="cls-12" d="M350.14,108.21c-3.24,0-5.88-2.58-5.88-5.75v-20.61c0-3.17,2.64-5.75,5.88-5.75h4.32c3.24,0,5.88,2.58,5.88,5.75v20.61c0,3.17-2.64,5.75-5.88,5.75h-4.32ZM352.28,81.92c-.25,0-.45.2-.45.36v19.7c0,.22.21.41.45.41.28,0,.49-.19.49-.41v-19.7c0-.17-.17-.36-.45-.36h-.04Z"/>
            <path class="cls-12" d="M381.19,108.21c-.34,0-.64-.22-.74-.55-.1-.33.03-.68.31-.87.08-.05.18-.15.21-.2l-.03-1.12c-.02-.27-.03-.45,0-.65v-22.5c0-.28-.06-.36-.06-.36h0s-.08-.05-.39-.05c-.37,0-.45.06-.45.06h0s-.04.06-.04.26v16.42c0,.25-.12.49-.33.64-.13.09-.29.14-.44.14-.09,0-.18-.02-.27-.05l-6.51-2.45c-.3-.11-.5-.4-.5-.72v-14.15s-.2-.14-.54-.14-.52.12-.55.16v24.22c.01.23.38.39.45.42.34.14.53.5.46.87-.07.36-.39.62-.76.62h-7.95c-.37,0-.69-.26-.76-.62s.12-.72.46-.87c.21-.09.29-.14.32-.16h0s0-.06,0-.17v-28.3c0-.22-.13-.43-.34-.52-.33-.15-.51-.51-.43-.87.08-.36.39-.61.76-.61h10.7c.09,0,.18.01.26.04l2.05.73,1.96-.73c.09-.03.18-.05.27-.05h4.37c3.98,0,6.76,2.42,6.76,5.88,0,0,0,24.55,0,24.59.02,0,.1.07.31.16.34.14.53.5.46.87s-.39.62-.76.62h-8.25Z"/>
            <path class="cls-12" d="M402.98,108.21c-.43,0-.77-.35-.77-.77v-10.8l-1.64-.56v11.36c0,.43-.35.77-.77.77h-7.29c-.37,0-.69-.26-.76-.63-.07-.36.13-.73.47-.86.15-.06.26-.22.26-.37v-24.37c0-3.41,2.84-5.88,6.76-5.88h4.37c3.91,0,6.76,2.47,6.76,5.88v24.37c0,.16.11.31.26.37.34.14.54.5.47.86-.07.36-.39.63-.76.63h-7.34ZM401.86,90.08v-7.75c0-.19-.18-.41-.45-.41h-.04c-.24,0-.45.23-.45.41v7.43l.94.31Z"/>
            <path class="cls-28" d="M335.6,99.01l6.16-2.4v10.83h-16.25c.48-.22.79-.7.79-1.22v-28.12c0-.52-.31-1.01-.79-1.22h8.04c-.57.22-.92.66-.92,1.18v24.72c0,.22.22.39.52.39h1.92c.31,0,.52-.17.52-.39v-3.76Z"/>
            <path class="cls-25" d="M354.46,76.87c2.84,0,5.11,2.23,5.11,4.98v20.61c0,2.75-2.27,4.98-5.11,4.98h-4.32c-2.84,0-5.11-2.23-5.11-4.98v-20.61c0-2.75,2.27-4.98,5.11-4.98h4.32ZM353.55,101.98v-19.7c0-.61-.52-1.14-1.22-1.14h-.04c-.66,0-1.22.52-1.22,1.14v19.7c0,.65.57,1.18,1.22,1.18h.04c.65,0,1.22-.52,1.22-1.18Z"/>
            <path class="cls-37" d="M381.19,107.44s.52-.35.52-.7v-1.27c0-.22-.04-.39,0-.57v-22.58c0-1.01-.52-1.18-1.22-1.18h-.04c-.65,0-1.22.17-1.22,1.09v16.42l-6.51-2.45v-14.15c0-.57-.61-.92-1.31-.92h-.09c-.65,0-1.22.39-1.22.87v24.28c0,.52.39.92.92,1.14h-7.95c.74-.31.79-.57.79-1.05v-28.3c0-.52-.31-1.01-.79-1.22h10.7l2.31.83,2.23-.83h4.37c3.71,0,5.98,2.27,5.98,5.11v24.41c0,.35-.04.7.79,1.05h-8.25Z"/>
            <path class="cls-22" d="M409.57,106.35c0,.48.31.92.74,1.09h-7.34v-11.35l-3.19-1.09v12.45h-7.29c.44-.17.74-.61.74-1.09v-24.37c0-2.8,2.27-5.11,5.98-5.11h4.37c3.67,0,5.98,2.27,5.98,5.11v24.37ZM400.14,82.33v7.99l2.49.83v-8.82c0-.61-.52-1.18-1.22-1.18h-.04c-.66,0-1.22.57-1.22,1.18Z"/>
          </g>
        </g>
      </g>
    </g>
  </g>
</svg>